<svg id="Layer_1" data-name="Layer 1" xmlns="http://www.w3.org/2000/svg" viewBox="0 0 264.69 2581.25"><title>calligraphy_bg7</title><path d="M269.09,1123.93c.6,6.16,1.78,12.31,1.72,18.46-.2,19.35-.87,38.71-1.33,58.06L267,1297.94l-1.64,73.51c-.64,30.3-.79,60.62-1.91,90.9-.73,20.62-1.44,41.24-2.32,61.85s-2,41.22-3.46,61.8c-1.91,27.23-6.78,54.28-9.63,81.45-1.37,13.24-.63,26.62-1.52,39.91-1.12,17.25-2.94,34.46-4.57,51.67l-5.73,58-6.06,66.38-2.79,28q-1.48,14-3.13,28c-.49,4.11-2.83,8-3.43,12.12-.79,5.42-.71,11-1,16.48l-.83,14.69c0,.47.25,1,.08,1.39-5.56,13.09,1.32,26.94-3.32,40.16-2.48,7.1-3.77,14.52-5.35,21.82-1.27,5.88-2.19,11.83-3.45,18.76l4.72,2.74-12.2,8.17c12.38,8.45,5.3,19.76,6,30.18.36,5.06,2.2,10.09,2.31,15.13.06,3-1.94,6-3.45,10.15,6.42,6.11,5.89,14.78,3.32,23.8a6.82,6.82,0,0,0,.61,4.26c2.51,6.12,4.74,12.14.31,15.46,1.22,8.43,2.9,15,3,21.56q.18,23.36-1,46.66c-.44,8.58-2.39,17.09-3.33,25.65a53,53,0,0,0-.08,13.07c1,6.52-.22,12-5,14.25l-.22,10.26-1.83-2.74c-.36.29-.71.6-1.06.91,1,.55,2,1.11,3,1.68l-.76,6.83.77,11.87-13-2.4c4.54,5.51,8.08,9.11,10.58,13.16,1.27,2,1.13,4.92.75,7.31-.92,5.7-2.37,11.31-1.8,17.28l-8.49,5.07c10.19-.65,8.82,3.56,8.49,7.7-.47,5.82,0,11.7-.62,17.51-.28,2.87-1.95,5.6-3.14,8.76,4.48,5.43,4.13,12.12,3.59,19-.34,4.46.28,9,.5,13.47,0,.7.61,1.58.27,2.06-3.06,4.42-1.48,7.92.91,12.62,2.79,5.5,1.78,12.33,2.4,18.61.14,1.57.14,3.17.2,5.32l-6.23-.8c.89,2.73.76,5.91,2.58,7.32,9,7,7.37,15.74,7.74,24.4.17,3.88,2.52,7.69,3.11,11.61,2.34,15.13,4.22,30.3,6.62,45.43.42,2.56,2.9,4.86,3.9,7.42.72,1.79,1.46,4.32.48,5.59-.75,1-4.14.54-6.35.72-3.76.33-7.54-5.88-11.28-.1l.14-.18c-4,1-8.47,3.67-11.78,2.82-7.42-1.9-14.85-3.87-22.59-6.32l8.32-1.69c-11.37-6.8-11.18-6.72-6.14-17.87,1-2.16-.39-5.08-.85-9.37l-5.53,4.86c-4.27-4.77-7.77-30.53-4.67-33.79-10.09-5.42-11.61-14.41-13.94-23a64.66,64.66,0,0,1-1.92-9.11c-.22-1.68.54-3.43.67-5.19a4.87,4.87,0,0,0-.57-2.85c-6.77-10.28-8.6-21.36-8.84-32.82-.06-2.45-1.53-4.85-1.77-7.32-.19-2,.5-4,.76-5.64a58,58,0,0,1-3.5-6.39,63.09,63.09,0,0,1-4.14-32.1c1.16-9,1.93-18.14,1-27.12-2.62-24.8,2.36-49.49-.2-74.31-1-9.82,1.58-19.85,2-29.83.17-3.77-1.17-7.57-1.56-11.4-.57-5.88-.84-11.78-1.34-17.66-.67-7.54-1.12-15.12-2.32-22.6-.49-3.08-3.41-5.86-4.06-8.94-2.69-12.59-7.52-25.09-3-38.11.64-1.82-2.28-4.35-2.35-6.58-.24-6.39.35-12.81.19-19.21-.06-2.22-1.84-4.38-2-6.61-.49-6.26-1.19-12.6-.47-18.78.26-2.23,4.31-4.13,6.68-6.23-3-1.15-6.64-1.66-8.29-3.46s-.87-4.71-1.86-7.08a50.3,50.3,0,0,1-2.09-6.85c-1.9-11.82,3.17-23.29,2.84-34.86-.29-10.49-4.28-20.93-6.56-31.4-.43-2-1.43-4.45-.46-5.94,3.82-5.86.53-11.83.65-17.67.08-3.31-3.17-6.62-4.69-10-1.94-4.36-4.38-8.72-5.31-13.27-2-9.75-4.67-19.61-4.35-29.37.47-14-6.58-26.48-8.28-40-1.17-9.39-4.68-18.59-5.76-28-1.1-9.7-5.47-17.69-12-25.65-4.86-6-7.47-13.37-10.09-20.39-3.93-10.58-8.69-21.23-10.19-32.11-3.28-23.75-4.78-47.66-6.9-71.51-.81-9-1.79-17.95-1.82-26.92,0-4.53,2.61-9,2.81-13.6.46-10.09-.43-20.22.29-30.3.55-7.67.47-14.85-1.72-22.59s-.13-16.59.66-24.89c2.75-29,7-57.88,8.27-86.91,1-22.73-1.64-45.56-2.56-68.33-.08-2,.77-4.08.79-6.14.08-5,0-10.11-.13-15.17l-1.27-48.48c-.09-4.61.35-9.22.42-13.84.13-8.92.69-17.86.14-26.75-.65-10.51-2.43-21-3.48-31.5a56.17,56.17,0,0,1,.35-9.69c.95-12.45,2.38-24.86,2.73-37.3.15-5.69-2.58-11.44-2.59-17.16-.12-27.27.3-54.52.41-81.79.09-17.85-1.22-35.85.21-53.68,1-12.75-2.17-25.82.66-37.85,1.62-6.87,1.08-13.58.47-20.25l-.44-4.93c-.13-1.66-.24-3.33-.28-5a45.89,45.89,0,0,1,.72-10c1.36-7-3.54-14.66-3.66-22C36.9,988,38,970.13,38,952.28c0-14.77-.92-29.54-1-44.32-.06-8.4,1.13-16.81,1-25.22-.06-4.49-2.48-9-2.43-13.45.16-11.62,1.43-23.25,1.62-34.88.23-13.39-.36-26.79-.32-40.19,0-12.21.55-24.42.61-36.64.07-18.8-.1-37.58-.08-56.37,0-10.87.41-21.75.09-32.62-.17-4.81-3.47-9.89-2.26-14.28,3-11-7.55-18.73-8.15-28.68-.28-4.33-1.95-8.63-2-12.94-.29-11.58-.18-23.17.09-34.76.08-3.37,2-6.76,1.89-10.11-.71-21.83-2-43.62-2.8-65.44-.53-14.6-.57-29.19-.61-43.78L23.56,424V389.11l.07-9.61.14-9.38q.16-9.53.43-19.07c.07-3,1.18-5.93,1.59-8.9.74-5.52,2.06-11.07,1.78-16.54-.8-16.84-2.71-33.63-3.4-50.48-1.18-28.92-2.31-57.86-2.61-86.86-.25-25.81.77-51.68,1.1-77.56.26-20.17.26-40.37.65-60.58.09-5.46-1.71-11.43,5.48-15.57,1.8-1,2-4.09,2.87-6.24,1.17-2.81,2.24-5.64,3.36-8.48l3,.22,3.29,5.17c.12.54.21,1.07.05.22.48.73.13.2-.2-.31l4.06-3.5c6.9-2.58,13.65-5.7,20.84-7.57,3.76-1,8.31.19,14.21.47L66.49,6.75,67.27,5C70.87,6.16,74.6,7.12,78,8.57c4.26,1.83,8.27,4.07,13.3,6.59l.56-9.83,10.4,5.35c7.48-5.62,11.33-5.67,23-.15,1,.48,3.19-.73,4.59-2.27,8.38,2,20-2.86,27.63,5.71l8.15-4.47c.8.4,1.69,1.26,2.61,1.25,9.24,0,13.64,4.77,16.94,11.1.45.84,3.6.65,5.5.94-.11-1.41.31-3.06-.43-4.15-2.16-3.18.56-10.95,5-11.77,9.48-1.76,18.39-6.31,28.66-4.54,4.19.74,8.46,1.16,13.38,1.79l-2-5.71c3.55-.51,7-.95,10.38-1.52,3.64-.59,7.21-1.47,10.85-1.94,5.69-.72,11.41-1.43,17.11-1.6,1.05,0,3.29,2.64,3.08,3.89-2.35,14.91,6.23,28.24,7.79,42.52a223.54,223.54,0,0,1,1.53,33.44c-.56,14-3.37,27.95-3.73,41.95-.43,15.82,1.24,31.65,1.07,47.5-.06,7.33-2.23,14.66-3.49,22-.31,1.83-1.15,3.71-1,5.49.68,6.43,2.35,12.8,2.45,19.22.33,22,0,44.07.09,66.11.07,15.75.87,31.49.7,47.25-.09,8.85-2,17.72-2,26.57,0,4.83.43,9.67.89,14.51l.34,3.63.31,3.78c.18,2.4.32,4.8.36,7.2.07,4.19-2,8.4-2.83,12.64a44.21,44.21,0,0,0-.92,8.86l.22,26.86q.13,13.48.4,27c.14,7.21,1.3,14.41,1.39,21.61.11,9.58-.14,19.18-.8,28.73-.14,2-2.59,3.84-3.11,4.55,1.2,7.28,3,13.79,3.19,20.3.41,19,0,37.9.13,56.84.09,12,.86,24,1,36,.17,20.34,0,40.71.11,61.05.07,8.4.83,16.79,1.29,25.18,0,.23.22.49.16.69-4.16,11.72,1.91,23.3.34,35.13s-1,23.8-1.37,35.71c0,.65-.6,1.3-.91,1.93l-1.41-2.9-1,.6,2.55,2.18c2.58,20,1.68,39.87-1.37,59.81-1.53,9.93-.79,20.12-.73,30.17.07,16.07.67,32.14.56,48.21-.06,8.82-1.49,17.65-1.67,26.49-.32,14.26.13,28.53-.24,42.78-.37,14.44-1.61,28.86-2,43.29-.13,4.78-.22,9.45-.3,14.32l-.19,14.25c-.11,9.5-.22,19-.47,28.5-.27,10.11-1,20.23-1.87,30.32-.13,1.57-2.06,3-3.16,4.55-.47-.52-.93-1-.19-.23-1.2-.32-.45-.11.3.09M183.69,2382.5c.87.17,1.73.36.31.08,1.4-.22.48-.09-.45.06l-3.86-2.56-.91,1.61c1.63.29,3.25.56,4.9.82m-52.15-29.12,3.28-2-1.84-1.31c-.43,1.13-.86,2.28-1.26,3.45l-.83,1.7.64-1.83M203.87,20.89l1.85-.71c-.13-.16-.26-.3-.4-.44l-1.19,1.34-6.67,4.43,2.61,1.64,3.8-6.26M260.13,1l-1.6-1.59C254.76.91,250,1.83,247.61,4.31c-1.22,1.27,1.78,5.35,3.32,9.36L260.13,1M82,373.67l-.52.36-.26.18-.06,0c0,.1,0-.13,0-.1h0l0,0-.13.09-1,.7-1.91,1.33-3.51,2.44-6.48,4.51c4.5,1.11,6.95,1.55,8.79.28a8.34,8.34,0,0,0,2.48-3.32c.4-.81.8-1.76,1.24-2.86l.68-1.77.36-1,.09-.25,0-.13,0-.06v0s0,.2,0,.1h0v0l.19-.53m159-364.35-.78-2.55-12,2.9.82,2.5,12-2.85M224.65,20.37l-.56-2.22-10.48,1.92.53,2.21,10.51-1.91M147.83,2353.58l-1.63-2.44-6,3.08,1.47,2.18,6.11-2.81M191,2202.73l-2.79-.17-.57,5.57,2.65.17.71-5.58M161,33.16l1.18,2.06,5.77-2.65L167,31l-6,2.18m32.42,2340.42-1.61.82,3.11,4.26c.54-.28,1.07-.54,1.61-.8ZM175.61,29.45c.87-1.35,1.59-2,1.69-2.79.05-.33-1.31-1.21-1.67-1.09a4,4,0,0,0-2.19,1.66c-.16.37,1.06,1.13,2.17,2.21m-5,2299-2.78-1.41-2.07,4.21,2,.85,2.85-3.65m15,123.68.57,1,5.73-2c-.22-.4-.45-.83-.66-1.23ZM171.15,37.21c1.31.66,2.14,1.38,2.55,1.22a8.09,8.09,0,0,0,2.15-1.64c-.59-.4-1.28-1.18-1.77-1.1a11.08,11.08,0,0,0-2.93,1.52M200,2255.31l2.36-.1q-.24-2.13-.51-4.27l-1.63,0-.21,4.34M76.09,42.32l-2.42-.38L73,45.72l2,.23,1.12-3.63m93.43,2485.35,7.33,1.62a8.57,8.57,0,0,0-5-2.92c-.28-.08-.79.42-2.33,1.3M280.19,732.44,279.14,731l-2.84,1.79c.29.34.76,1,.87.94a32.55,32.55,0,0,0,3-1.31M114.59,2078.78l1.66-.92-2.37-2.66-1.13.59,1.85,3m61.88-64.07a9.11,9.11,0,0,0,2.24,1c.29,0,1.09-.64,1-.85a5.46,5.46,0,0,0-1.1-1.48c-.59.34-1.17.69-2.17,1.3m9.15,456.75a8.21,8.21,0,0,0-1.06,2.57c0,.37,1,.72,1.58,1.08a7.62,7.62,0,0,0,1.5-2c.09-.27-1-.81-2-1.62M60.44,26.9l-.88-1-3.71,2.2c.3.34.6.69.89,1l3.7-2.24m140,2009.35a8.4,8.4,0,0,0-2-.65c-.26,0-.61.54-.93.83a7.93,7.93,0,0,0,1.82.82c.2.06.61-.53,1.11-1m-7.64,24.65c-1,1.18-1.74,1.67-1.69,2.15s.87.87,1.36,1.31c.61-.54,1.49-1,1.71-1.66.16-.37-.73-1-1.38-1.8m-.21,278.15L195,2341l1.94-2.49-1.66-1.25-2.74,1.79m-36.73,153.63-1.47.28c.36,1,.69,2.08,1,3.13.39-.09.77-.15,1.16-.22Zm30.74,45.11-1.31,1.08a6.06,6.06,0,0,0,1.68.88c.26.07.71-.5,1.07-.79l-1.44-1.17M242,1264.33l-1,1.15,3.53,1.13.51-1-3-1.33m-42.1,1221.75-2.15-.62c-.06.39-.33.89-.15,1.12a2,2,0,0,0,1.37.48c.29,0,.54-.53.94-1m-50.1-106.86c-.44-.23-.93-.69-1.25-.63s-.73.57-1.09.88l1.64.91.7-1.16m-9.45-12.49c.37.28.72.75,1.13.8a3.4,3.4,0,0,0,1.38-.46,5.6,5.6,0,0,0-1.41-1.06c-.18-.07-.7.46-1.1.72M170.61,2334c.22.67.24,1.36.46,1.4a7.92,7.92,0,0,0,2,0c-.1-.39-.08-1-.37-1.11a9.36,9.36,0,0,0-2.1-.33M198.9,2221.1a9,9,0,0,0,.94-1.08,16.66,16.66,0,0,0-1.66-1.08c-.28.29-.84.78-.73.9a8.66,8.66,0,0,0,1.45,1.26m3.37-167.69c.46.2.88.53,1.21.49a3.82,3.82,0,0,0,1.23-.62,4.67,4.67,0,0,0-1.48-.71c-.27,0-.63.53-1,.84M117.85,372.15a8.23,8.23,0,0,0,2.3,1.12.48.48,0,0,0,.28-.08c.06,0,.12-.12.18-.06l.18-.14c.24-.19.44-.41.4-.49a2.64,2.64,0,0,0-1.27-1.45c-.36-.12-1.12.57-2.07,1.1M114.63,54c.31.26.65.49,1,.74a4.35,4.35,0,0,0,.51-1c0-.12-.43-.45-.47-.43-.35.21-.68.47-1,.7m69,2491.78.53-1.08a5.47,5.47,0,0,0-.69-.22,8.81,8.81,0,0,0-.54,1.07l.7.23M241.16,33.73c.18.35.36.66.53,1,.4-.18,1-.27,1.19-.55s-.31-.62-.48-.94l-1.25.52M152.88,2485.58a5.17,5.17,0,0,0-.59.44,6.28,6.28,0,0,0,1,.67c.08,0,.38-.25.59-.39l-1-.72m36.87-18c.19-.32.64-.72.52-.91s-.72-.5-1.11-.76l-.75,1.3c.43.13.88.27,1.34.36M120.6,275.48l1.76.33.81-3.44-1.24-.24-1.33,3.34M271.47,387.39l.58,1.06c.43-.18,1.07-.29,1.22-.58s-.33-.69-.52-1l-1.27.55M195,2292.11a7.4,7.4,0,0,0,1,.75c.07,0,.58-.23.57-.29a4.33,4.33,0,0,0-.36-1l-1.19.56m2.34-21.66,1.33,0c0-.23,0-.62-.11-.64a9.72,9.72,0,0,0-1.3-.06c0,.21,0,.44.08.67M158.94,2241c.32.33.57.8.94.87s.73-.37,1.11-.58c-.42-.39-.82-.81-1.22-1.21-.28.31-.53.62-.83.92m46-220.93a7,7,0,0,0,1.3.11c.12,0,.35-.49.28-.53a8.82,8.82,0,0,0-1.07-.69c-.18.36-.35.74-.51,1.11m8.19-47.15c.26.31.49.85.74.86s.77-.35,1.16-.55c-.24-.29-.47-.82-.74-.84s-.76.33-1.16.53m35.43-610.09a7.27,7.27,0,0,0,.76.86s.59-.18.59-.3a5.13,5.13,0,0,0-.22-1.08l-1.14.51M109.39,14.37c.14.18.36.54.4.53a11.19,11.19,0,0,0,1.21-.55c-.14-.18-.36-.54-.42-.53a12.18,12.18,0,0,0-1.19.55m160.7-16v.75L272.64-1c0-.23,0-.47,0-.7l-2.54,0M270,5.72l-1,.82c.38.26,1,.79,1.1.73a7.32,7.32,0,0,0,1.36-1.15L270,5.72M243.82,14.9c.33.28.65.72,1,.75s.71-.42,1.05-.64c-.31-.28-.62-.74-1-.78s-.69.42-1.07.67m8.43,2.51a6.54,6.54,0,0,0,.57-1,1,1,0,0,0-.57-.3,8.74,8.74,0,0,0-1.07.63l1.07.67M182.4,28.14c.14.17.27.34.4.53a11.56,11.56,0,0,0,1.12-.69,4.13,4.13,0,0,0-.39-.5l-1.14.66m80-2.6a7.7,7.7,0,0,0,.57-1s-.44-.32-.53-.28a6.45,6.45,0,0,0-1,.63l1,.62m-46.1,2541c-.42-.18-.82-.36-1.22-.55-.07.18-.25.5-.18.54a10,10,0,0,0,1.2.57l.21-.57m-16.15-26.34c-.19.1-.5.17-.56.32s.11.37.19.55l.92-.53c-.17-.12-.36-.23-.55-.34M176,2493.93a8.22,8.22,0,0,0-1.05-.46s-.35.37-.3.47a3.85,3.85,0,0,0,.61.86l.74-.87m-5.73-36.56c-.17.11-.35.24-.53.35a7.08,7.08,0,0,0,.87.74,5.18,5.18,0,0,0,.52-.33c-.28-.26-.56-.51-.85-.76M144.87,2459c.06.18.13.51.16.48a12.7,12.7,0,0,0,1.36-.18c-.06-.16-.12-.47-.16-.47a11,11,0,0,0-1.36.17m6.95-42.59c-.45-.1-1-.36-1.33-.25s-.32.63-.48,1c.45.1,1,.39,1.29.28s.35-.64.52-1m-19.56-28-.22.52c.2.05.47.22.61.17s.26-.37.19-.47-.37-.15-.58-.21m46.36-133c.09.16.15.42.3.47s.37-.13.57-.22c-.09-.14-.14-.41-.29-.46s-.39.14-.58.21m28.54-59.29.86.79a7.06,7.06,0,0,0,.54-1.07c0-.11-.28-.33-.43-.49l-1,.78m-87-54.65c-.22-.06-.46-.12-.68-.21-.07.19-.27.43-.19.54s.41.15.64.22Zm77.89-9.38c-.22.09-.58.15-.65.3s.2.37.32.57c.22-.11.59-.15.65-.28s-.18-.38-.32-.58m-17.45-44.37c.06-.15.22-.35.16-.45s-.34-.14-.53-.18c-.07.15-.22.35-.17.45s.35.13.54.18M268.51,506l.75,0v-.75a1.69,1.69,0,0,0-.72.18c-.09.07,0,.33,0,.52M120.34,2067a5.54,5.54,0,0,0-.93-.69c-.07,0-.52.23-.51.34a4.43,4.43,0,0,0,.31.94l1.13-.6m81.23-19.46c.12.16.21.43.37.46s.43-.12.63-.18c-.2-.24-.41-.5-.63-.73-.13.13-.25.3-.38.45m-47.79-7.88-.26.58c.25.07.54.26.69.19s.2-.38.27-.58l-.71-.19M271.83,383.52c.19,0,.43.18.58.11s.13-.3.18-.46c-.18,0-.44-.17-.56-.11s-.13.29-.19.46M249.52,208.71l-.55.4a7.47,7.47,0,0,0,.94.71s.33-.24.52-.38l-.92-.73M213.72,1956.38l-1,.67a7.52,7.52,0,0,0,1,.59c.09,0,.54-.29.51-.34a6.77,6.77,0,0,0-.55-.92M238.37,23.82l1.4,0a4,4,0,0,0-.11-.91.94.94,0,0,0-.69,0,4.52,4.52,0,0,0-.61.9m35.2-7.06.17-.84-.56.27c.1.16.2.31.39.57m-14.44-6.63L259,9.6l-.9.43c.14.13.29.33.44.35s.39-.16.58-.26M33.82,39.54c.19,0,.43.17.56.1s.14-.3.19-.45c-.19,0-.43-.16-.55-.1s-.15.29-.2.45M39,33.81l-.27,1.06c.23,0,.63,0,.66,0a4.84,4.84,0,0,0,.3-1H39m187.76-28c0,.19.1.36.13.55l1-.45c-.16-.13-.3-.35-.48-.36s-.39.17-.61.26m-86.39,7.86c.16-.13.32-.24.5-.36-.22-.06-.49-.23-.61-.16a2.19,2.19,0,0,0-.58.56l.68,0m70.23,2549.92-.06.49.53-.22Zm-33.44-22.25.18.46.46-.33Zm31.48-20.2.48.25,0-.53Zm-42.37-17.25a1.12,1.12,0,0,0,0,.57c0,.08.4,0,.6,0,0-.19.06-.42,0-.57s-.4,0-.6,0m5.36-22.74.62-.09-.4-.78c-.14.12-.41.23-.44.37s.12.34.22.5M196.52,2447c.22-.08.54-.14.62-.28s-.17-.36-.26-.53c-.21.08-.54.12-.61.28s.14.32.24.53m-20.48.08c.41.07.83.17,1.24.21,0,0,.12-.32.18-.5-.41-.08-.83-.17-1.22-.22,0,0-.12.32-.19.51m7.3-6.05-.55-.22,0,.41Zm-29.42-5.47.57.2c.06-.15.22-.34.15-.43s-.34-.16-.54-.23l-.18.46m-23.1-34.65c.17.1.35.26.51.24s.31-.2.46-.31c-.16-.1-.35-.26-.53-.27s-.29.22-.45.33m26.4-22.22-.61,0,.22.45Zm28.43-15.84.05.51a5,5,0,0,0,.55-.05c0-.16,0-.37-.11-.48s-.33,0-.49,0m-21.16-10.54.58-.3-.9-.51c-.09.16-.31.37-.26.48s.38.23.58.32M148.25,2349l.65.33.27-.92a2.31,2.31,0,0,0-.73,0c-.14.09-.13.36-.19.54m-4.86-2.19,1.06.19-.27-.53-.79.34m22.59-30c.12.2.21.49.38.54s.44-.13.68-.22c-.13-.19-.21-.49-.4-.55s-.44.15-.66.23m35.79-71.12,1.1.5c0-.2,0-.52-.1-.54a3.36,3.36,0,0,0-1,0m-70-69.17a2.17,2.17,0,0,0-.6,0c-.06,0,0,.26,0,.42a1.7,1.7,0,0,0,.6,0c.08,0,0-.27,0-.41m40.17-7,.41.41.2-.47Zm10.8-74.76,0-.5-.52.17Zm-19-17.52.57.22c.07-.17.24-.37.17-.47s-.37-.16-.54-.21l-.2.46m25.46-33c.36-.2.62-.36.88-.48-.22-.06-.49-.2-.61-.14s-.14.33-.27.61m-73-19.34c-.06.16-.21.38-.13.48s.34.13.53.18c0-.15.21-.35.15-.47s-.35-.12-.54-.19m-3.72-44.41c.11.16.2.4.36.45s.39-.13.6-.2l-.61-.67c-.14.13-.25.29-.36.42m151.91-1392,.38-.5-1.1-.26c0,.18-.06.44.05.56a2.35,2.35,0,0,0,.67.2m-111.4-24-.38.29.51.15ZM271.83,378.58a2,2,0,0,0,.61-.07c.07,0,0-.27,0-.42a2.16,2.16,0,0,0-.61.06c-.07,0,0,.28,0,.42m9.71-305.35-.62-.16c0,.18-.22.4-.14.49s.39.13.6.18c0-.17.11-.33.17-.51M165.06,41l-.51.2.44.17Zm70.16-21.19,1.08-.14c-.17-.11-.34-.29-.49-.29s-.31.21-.58.43M81.52,24l-.87.56c.22,0,.51.16.63.08s.14-.35.23-.64m-11,2.17.42-.34-.57-.14Z" transform="translate(-21.5 6.63)"/><path d="M56.73,13.27l-3.89,4.27-2-1.26,4-4.17,1.81,1.17" transform="translate(-21.5 6.63)"/><path d="M163.18,2559.92l-.56-5.13,1.1-.06.56,5.15-1.1.05" transform="translate(-21.5 6.63)"/><path d="M203.28,2571.8l4,.22c-.2.54-.41,1.06-.62,1.58l-3.2-2a1.46,1.46,0,0,0-.14.17" transform="translate(-21.5 6.63)"/><path d="M206.41,2076.6l-.19.47c-.19,0-.48-.08-.54-.18s.1-.31.16-.46l.57.17" transform="translate(-21.5 6.63)"/><path d="M46.92,15.12c-.24-.06-.6-.05-.69-.18a.51.51,0,0,1,.19-.57c.15-.07.47.07.7.14Z" transform="translate(-21.5 6.63)"/><path d="M60.58,10.17c.07-.21.07-.49.22-.56s.46.08.69.12c-.07.2-.08.51-.22.57s-.45-.09-.69-.13" transform="translate(-21.5 6.63)"/><path d="M27.82,28.59c-.14-.14-.39-.26-.4-.41s.22-.29.35-.44l0,.85" transform="translate(-21.5 6.63)"/></svg>