<svg id="Layer_1" data-name="Layer 1" xmlns="http://www.w3.org/2000/svg" viewBox="0 0 198.42 1589.84"><title>calligraphy_bg6</title><path d="M265.76,609.23" transform="translate(-182.82 30.25)" style="fill:none;stroke:#000;stroke-miterlimit:10;stroke-width:12px"/><path d="M354.41,664.86c.42,3.8,1.24,7.61,1.19,11.4-.17,11.92-.67,23.86-1,35.78q-.92,30.05-1.81,60.1-.64,22.67-1.15,45.32c-.43,18.68-.53,37.37-1.25,56-1,25.42-1.85,50.85-3.79,76.23-1.29,16.79-4.64,33.48-6.53,50.24-.92,8.17-.32,16.41-.89,24.61-.72,10.64-1.89,21.25-3,31.87-1.19,11.94-2.54,23.87-3.72,35.8-1.32,13.65-2.46,27.31-3.79,41-1.13,11.53-2.33,23.05-3.71,34.56-.31,2.54-1.94,5-2.33,7.5a97.82,97.82,0,0,0-.56,10.16c-.15,3-.31,6-.45,9.06,0,.29.19.61.07.85-3.85,8.12,1.21,16.59-1.93,24.79-1.68,4.4-2.52,9-3.56,13.51-.83,3.64-1.42,7.31-2.24,11.6l3.41,1.64-8.62,5.17c9,5.08,4,12.12,4.67,18.54.33,3.12,1.71,6.2,1.87,9.3.09,1.85-1.3,3.72-2.32,6.3,4.67,3.69,4.42,9,2.71,14.63a3.71,3.71,0,0,0,.5,2.62c1.88,3.74,3.56,7.43.44,9.52,1,5.18,2.29,9.2,2.44,13.25q.51,14.39.07,28.77c-.17,5.29-1.43,10.57-2,15.86a28.21,28.21,0,0,0,.16,8.06c.79,4,0,7.38-3.36,8.86,0,2.7,0,4.51,0,6.33l-1.36-1.66c-.25.18-.5.38-.74.58l2.2,1c-.11,1.16-.23,2.33-.41,4.22.2,1.88.47,4.55.77,7.3l-9.35-1.27c3.35,3.33,5.94,5.49,7.8,7.94.95,1.23.9,3,.67,4.49-.55,3.53-1.48,7-1,10.68l-6,3.27c7.27-.57,6.37,2,6.21,4.61-.22,3.6.2,7.21-.1,10.8-.14,1.77-1.27,3.48-2.06,5.45,3.32,3.27,3.21,7.4,3,11.63a57.94,57.94,0,0,0,.65,8.29c0,.43.47,1,.23,1.26-2.09,2.78-.88,4.91.92,7.76,2.11,3.34,1.54,7.56,2.11,11.42.14,1,.16,1.95.26,3.27l-4.46-.37c.69,1.67.67,3.63,2,4.46,6.54,4.11,5.64,9.55,6.1,14.88.21,2.38,2,4.69,2.5,7.09,2,9.26,3.74,18.56,5.82,27.82.36,1.57,2.18,2.93,3,4.48.55,1.09,1.15,2.63.47,3.43-.51.62-2.94.42-4.51.58-2.68.29-5.52-3.46-8.06.18l.1-.11c-2.8.73-6,2.44-8.34,2-5.34-1-10.69-2.06-16.28-3.4l5.9-1.22c-8.28-3.94-8.14-3.9-4.81-10.88.65-1.35-.4-3.13-.83-5.76-2,1.64-2.92,2.38-3.83,3.11-3.16-2.85-6.28-18.67-4.15-20.74-7.33-3.14-8.63-8.66-10.5-13.94a35.29,35.29,0,0,1-1.59-5.59c-.19-1,.32-2.13.37-3.22a2.68,2.68,0,0,0-.47-1.75c-5.05-6.21-6.6-13-7-20.1-.1-1.51-1.2-3-1.42-4.49a12.23,12.23,0,0,1,.42-3.5,35.08,35.08,0,0,1-2.63-3.88,34.36,34.36,0,0,1-3.64-19.76,62.71,62.71,0,0,0,.18-16.77c-2.33-15.28.74-30.62-1.53-45.91-.9-6.05.8-12.29,1-18.46.06-2.33-1-4.66-1.3-7-.5-3.63-.79-7.27-1.25-10.89-.6-4.65-1-9.33-2-13.93-.4-1.9-2.54-3.58-3-5.47-2.1-7.75-5.73-15.41-2.65-23.52.43-1.14-1.69-2.66-1.77-4-.26-4,.07-7.92-.14-11.88-.08-1.37-1.37-2.69-1.53-4.06-.44-3.87-1-7.78-.6-11.6.16-1.38,3-2.6,4.68-3.93-2.13-.68-4.76-1-6-2s-.68-2.9-1.41-4.35a28.21,28.21,0,0,1-1.58-4.21c-1.5-7.29,2-14.44,1.61-21.58-.33-6.48-3.31-12.9-5.06-19.36-.33-1.21-1.07-2.74-.4-3.67,2.65-3.66.25-7.32.27-10.93,0-2-2.33-4.07-3.45-6.16-1.43-2.68-3.22-5.36-3.93-8.16-1.53-6-3.53-12.09-3.4-18.13.2-8.63-5-16.34-6.29-24.67-.91-5.8-3.49-11.47-4.34-17.27-.86-6-4.05-10.91-8.76-15.8-3.52-3.66-5.44-8.23-7.37-12.56-2.9-6.53-6.36-13.09-7.51-19.82-2.5-14.69-3.72-29.49-5.39-44.25a165.13,165.13,0,0,1-1.44-16.66c0-2.81,1.82-5.61,1.94-8.44.28-6.25-.41-12.52.06-18.76a34.24,34.24,0,0,0-1.33-14c-1.63-4.84-.16-10.27.38-15.41,1.87-17.94,4.81-35.85,5.63-53.83.65-14.07-1.26-28.19-2-42.29-.06-1.26.54-2.53.55-3.8.05-3.12,0-6.26-.12-9.39-.3-10-.68-20-.95-30-.07-2.85.24-5.71.29-8.56.08-5.52.48-11.05.08-16.55-.47-6.5-1.74-13-2.48-19.49a30.14,30.14,0,0,1,.25-6c.68-7.7,1.7-15.38,2-23.07.11-3.52-1.84-7.08-1.85-10.62-.06-16.87.28-33.75.39-50.62.08-11.06-.81-22.17.25-33.17.75-7.87-1.5-15.94.55-23.37,2.34-8.48-1.48-16.57.43-24.88,1-4.32-2.49-9.07-2.56-13.64-.16-11,.7-22.08.77-33.13.07-9.14-.56-18.29-.56-27.44,0-5.2.88-10.41.85-15.61,0-2.78-1.73-5.57-1.67-8.34.17-7.2,1.14-14.4,1.33-21.6.24-8.3-.1-16.61,0-24.91.1-7.57.55-15.14.68-22.72.19-11.66.21-23.31.38-35,.08-6.75.48-13.5.35-20.25-.08-3-2.38-6.17-1.48-8.89,2.25-6.81-5.2-11.7-5.53-17.88-.15-2.69-1.29-5.38-1.31-8.06-.07-7.2.13-14.4.47-21.6.1-2.09,1.52-4.18,1.48-6.27-.24-13.58-.86-27.15-1.09-40.73-.15-9.09.07-18.17.27-27.25q.5-21.6,1.23-43.22c.28-7.91.73-15.82,1.25-23.73.12-1.85,1-3.67,1.33-5.51.66-3.42,1.72-6.85,1.65-10.26-.17-10.49-1.13-21-1.2-31.45-.11-18-.14-36,.46-54,.54-16,2-32,3-48,.78-12.47,1.39-25,2.27-37.43.23-3.37-.87-7.1,4.38-9.47,1.32-.6,1.56-2.47,2.24-3.78.92-1.7,1.77-3.42,2.65-5.14l2.15.22,2.19,3.28c.07.34.12.67,0,.14l-.14-.19c1-.73,2.1-1.44,3-2.05,5-1.41,9.92-3.15,15.1-4.12,2.72-.51,5.93.34,10.13.66l-9.59-5.17.62-1.05c2.53.81,5.16,1.49,7.55,2.48,3,1.24,5.78,2.73,9.29,4.42.23-2,.39-3.47.7-6,2.92,1.45,5,2.47,7.26,3.57,5.51-3.27,8.26-3.2,16.44.52.71.32,2.3-.36,3.34-1.28,5.92,1.47,14.35-1.23,19.55,4.26l5.95-2.54c.56.27,1.17.82,1.83.84,6.59.24,9.59,3.3,11.75,7.3.29.53,2.55.5,3.9.72,0-.87.31-1.88-.18-2.57-1.44-2,.73-6.74,3.9-7.13,6.82-.84,13.31-3.41,20.59-2,3,.56,6,.94,9.49,1.46-.31-.94-.68-2-1.23-3.57,2.55-.22,5-.4,7.45-.66,2.62-.27,5.19-.71,7.8-.91,4.08-.3,8.18-.58,12.26-.53.75,0,2.26,1.72,2.08,2.48-2.13,9.14,3.59,17.58,4.27,26.42a119.29,119.29,0,0,1,.09,20.63c-.82,8.59-3.24,17.11-3.9,25.72-.77,9.72,0,19.49-.6,29.23-.25,4.5-2,9-3.11,13.43-.28,1.12-.92,2.25-.84,3.35.31,4,1.32,7.92,1.22,11.86-.36,13.52-1.2,27-1.66,40.56-.34,9.65-.15,19.32-.63,29-.26,5.42-1.87,10.81-2,16.23-.21,5.92.83,11.88.74,17.8,0,2.59-1.6,5.15-2.27,7.75a23.82,23.82,0,0,0-.84,5.45c-.25,11-.5,22-.55,32.93,0,4.42.69,8.85.64,13.27-.07,5.87-.42,11.75-1,17.6-.13,1.21-1.91,2.32-2.29,2.75.75,4.48,2,8.5,2,12.49,0,11.63-.53,23.26-.65,34.89-.08,7.38.34,14.75.28,22.13-.08,12.5-.45,25-.52,37.51,0,5.16.44,10.32.7,15.49,0,.14.16.3.11.42-3.06,7.18,1.19,14.34,0,21.6s-.84,14.63-1.22,22c0,.4-.44.8-.67,1.18-.32-.6-.65-1.19-1-1.79l-.73.36c.6.45,1.21.9,1.8,1.35a113.64,113.64,0,0,1-1.32,36.8c-1.14,6.1-.67,12.38-.67,18.57,0,9.89.34,19.8.2,29.7-.07,5.44-1.12,10.87-1.29,16.32-.28,8.79,0,17.58-.31,26.37s-1.23,17.79-1.54,26.69c-.42,11.73-.41,23.46-.81,35.19-.21,6.24-.75,12.49-1.4,18.72-.1,1-1.48,1.88-2.27,2.81-.33-.32-.66-.64-.14-.14-.86-.2-.32-.07.21.06m-52,776.51c.62.09,1.24.19.22,0,1-.16.34-.06-.32,0l-2.8-1.51c-.2.33-.41.68-.62,1,1.17.15,2.33.29,3.52.42m-37.79-17.09c.77-.43,1.53-.87,2.31-1.3l-1.34-.78c-.28.71-.57,1.42-.83,2.15l-.56,1.06c.15-.38.28-.76.42-1.14M323.76-15.11l1.34-.39-.27-.28-.89.8L319-12.43l1.82,1.08,2.9-3.76m40.75-10.81-1.09-1c-2.73.85-6.15,1.29-7.94,2.76-.91.75,1.11,3.35,2.08,5.86l7-7.6M227.28,199.93l-10.14,5.74c6.39,1.53,7,1.24,10.14-5.74M350.65-21.27c-.16-.53-.31-1.06-.48-1.59l-8.64,1.47c.17.52.33,1,.51,1.56l8.61-1.44m-12,6.39c-.12-.46-.22-.92-.33-1.39l-7.54.91c.11.46.2.92.31,1.38l7.56-.9m-62.32,1439-1.21-1.48-4.19,2L272,1426l4.31-1.84m28.23-93.72-2-.07c-.1,1.14-.2,2.29-.32,3.44l1.89.07c.13-1.14.28-2.3.41-3.45M292.78-8.67c.26.43.53.87.78,1.3l4.2-1.48-.63-1-4.35,1.19m16.42,1444.38-1.13.53,2.3,2.57,1.13-.52ZM303.33-10.58c.66-.81,1.19-1.21,1.29-1.68,0-.21-.9-.78-1.16-.71a2.89,2.89,0,0,0-1.61,1c-.13.22.72.73,1.48,1.42m-11.25,1418.8-2-.83c-.47.87-.94,1.75-1.4,2.63l1.44.5c.65-.77,1.32-1.53,2-2.3m13.22,76,.43.64,4-1.36c-.17-.24-.34-.5-.5-.75ZM299.91-5.91c.92.44,1.48.9,1.79.82a5.87,5.87,0,0,0,1.58-1c-.41-.26-.88-.76-1.23-.72a8.55,8.55,0,0,0-2.14.86m11.83,1368.62,1.68-.1q-.2-1.31-.44-2.62l-1.16,0c0,.89,0,1.78-.08,2.68M231.92-5.26l-1.72-.3c-.2.76-.41,1.54-.62,2.31L231-3l.91-2.21m63.62,1536.41,5.27.84a6.47,6.47,0,0,0-3.64-1.7c-.2,0-.56.27-1.63.85M363.93,423.69l-.74-.88-2,1.08c.2.21.54.61.61.58.75-.21,1.46-.51,2.17-.78M248.19,1254.79l1.17-.58c-.58-.54-1.14-1.08-1.73-1.62l-.8.38,1.36,1.82m43.43-40.2a7.09,7.09,0,0,0,1.61.61c.2,0,.77-.41.72-.54-.13-.33-.52-.61-.8-.9l-1.53.82m14.09,281.59c-.33.69-.71,1.16-.7,1.61,0,.23.75.42,1.15.64a4.76,4.76,0,0,0,1-1.28c.06-.17-.7-.48-1.47-1M221.22-15.19l-.6-.64-2.72,1.26.61.66,2.71-1.29M309,1227.64a6.72,6.72,0,0,0-1.44-.38c-.19,0-.43.34-.65.52a6.17,6.17,0,0,0,1.31.49c.15,0,.43-.33.78-.63m-5.16,15.28c-.68.74-1.22,1-1.18,1.35s.63.53,1,.79c.43-.34,1.05-.64,1.2-1,.11-.23-.54-.62-1-1.09M308,1414.44l1.8,1.16,1.34-1.56-1.21-.74-1.93,1.15m-23,95.4-1,.2c.28.63.55,1.27.82,1.91l.82-.16ZM308,1537l-.91.69a4.65,4.65,0,0,0,1.22.51c.19,0,.5-.32.74-.51L308,1537M334.89,751.4l-.7.71,2.52.7.36-.59-2.18-.82m-18.68,753.5-1.55-.34c0,.24-.22.56-.08.69a1.63,1.63,0,0,0,1,.27c.21,0,.37-.34.64-.62m-38.05-65c-.32-.13-.67-.41-.91-.37s-.51.37-.76.56l1.19.53.48-.73m-7-7.55c.27.17.53.45.82.47a2.68,2.68,0,0,0,1-.31,4,4,0,0,0-1-.63c-.13,0-.49.3-.77.47m21-20.66c.17.41.2.83.35.85a6.54,6.54,0,0,0,1.44,0c-.08-.24-.08-.61-.28-.68a7.69,7.69,0,0,0-1.5-.17m18.24-70.07a5.78,5.78,0,0,0,.66-.68,12.37,12.37,0,0,0-1.2-.64c-.2.18-.59.49-.51.56a6.08,6.08,0,0,0,1.05.76m.08-103.43a2.54,2.54,0,0,0,.87.29,2.9,2.9,0,0,0,.87-.39,3.61,3.61,0,0,0-1.06-.42c-.2,0-.44.33-.67.53M252.87,199.65a9.24,9.24,0,0,0,1.62.77c.18,0,.81-.39.76-.49a1.72,1.72,0,0,0-.88-.92c-.25-.08-.81.33-1.5.64M259.07,3c.21.17.45.32.66.48a2.6,2.6,0,0,0,.39-.61c0-.07-.29-.29-.32-.28-.25.12-.5.27-.73.41M306,1542l.35-.68a4.39,4.39,0,0,0-.5-.12,5.13,5.13,0,0,0-.36.67l.51.13M350-6.21c.12.22.23.41.35.61a2.77,2.77,0,0,0,.87-.31c.09-.09-.2-.39-.31-.59l-.91.29M282.64,1505.52a3.65,3.65,0,0,0-.41.28,4.65,4.65,0,0,0,.73.4c.06,0,.26-.16.41-.25l-.73-.42m25.92-11.81c.13-.2.44-.46.35-.57s-.53-.3-.81-.45c-.17.28-.34.55-.51.82.31.07.63.15,1,.2M257.08,139.91l1.25.24c.22-.7.44-1.41.67-2.11l-.88-.17c-.34.68-.69,1.36-1,2m105.17,71.86.39.67c.31-.11.77-.16.88-.33s-.22-.43-.35-.65l-.92.32M308.8,1385.46a5.35,5.35,0,0,0,.71.44.81.81,0,0,0,.4-.19,2.46,2.46,0,0,0-.27-.62l-.84.37m1.31-13.39h.95c0-.14,0-.38-.09-.4a8,8,0,0,0-.93,0c0,.13,0,.27.07.41m-27.89-17.62c.23.2.42.49.68.52s.52-.24.78-.37c-.3-.23-.6-.49-.89-.73-.2.2-.37.39-.58.58M312,1217.62a5.81,5.81,0,0,0,.93.06c.09,0,.24-.3.2-.33a6.55,6.55,0,0,0-.77-.42c-.13.23-.24.46-.35.69m5.35-29.14c.19.19.36.52.54.52a2.31,2.31,0,0,0,.82-.35c-.18-.18-.34-.5-.54-.51a2.35,2.35,0,0,0-.82.34M339.6,812.15a4.78,4.78,0,0,0,.55.53s.42-.11.42-.18a2.79,2.79,0,0,0-.16-.66l-.81.32M256.53-21.63c.1.11.24.34.27.34a8.76,8.76,0,0,0,.88-.31c-.1-.12-.24-.34-.28-.34-.3.08-.59.2-.87.31M371.7-27.28c0,.15,0,.31,0,.46l1.82,0c0-.14,0-.29,0-.43l-1.82-.05m-.3,4.55-.75.48c.26.17.66.51.76.48a5.2,5.2,0,0,0,1-.67l-1-.28m-19,5c.22.18.44.46.69.49s.52-.24.77-.37c-.21-.18-.42-.47-.68-.5s-.51.24-.78.38M358.39-16a4,4,0,0,0,.44-.6.7.7,0,0,0-.4-.2,6.64,6.64,0,0,0-.78.36l.74.44m-50.17,4.77c.1.11.18.22.27.34a8.71,8.71,0,0,0,.82-.4,2.59,2.59,0,0,0-.26-.32l-.83.38m57.14.5a4.74,4.74,0,0,0,.44-.58.72.72,0,0,0-.37-.18,4.86,4.86,0,0,0-.75.36l.68.41M329.84,1554.1l-.89-.31c0,.11-.17.31-.12.34a7.73,7.73,0,0,0,.87.33c0-.11.09-.24.14-.35m-12.16-15.87c-.14.06-.35.11-.39.21s.09.23.15.33l.65-.35-.4-.2m-18.32-28a6.47,6.47,0,0,0-.76-.26s-.24.23-.21.3a2.46,2.46,0,0,0,.46.52l.51-.55m-4.91-22.43-.37.23a5,5,0,0,0,.63.44,3.8,3.8,0,0,0,.36-.21l-.62-.45m-18.11,1.49c0,.11.11.31.13.3.33,0,.65-.08,1-.14,0-.1-.1-.29-.13-.29a9,9,0,0,0-1,.13m4-26.42a2.53,2.53,0,0,0-1-.13c-.19.06-.22.39-.32.62.32.06.7.23.93.15s.23-.4.35-.64m-14.56-16.94-.15.32c.15,0,.34.13.44.09s.18-.23.13-.3-.26-.09-.42-.12m30.68-82.85c.07.1.12.25.22.28s.26-.09.4-.14c-.07-.08-.11-.25-.21-.28s-.27.09-.41.14m19.41-36.95.62.47a4.22,4.22,0,0,0,.37-.67c0-.07-.2-.2-.31-.3l-.68.49M253,1293.47c-.16,0-.33-.07-.49-.12,0,.12-.19.27-.13.34s.29.09.46.13Zm55.49-6.71c-.16.06-.41.1-.46.19s.15.23.23.35c.16-.07.42-.1.46-.18s-.14-.23-.23-.35m-13.06-27.17c0-.09.16-.22.11-.28s-.24-.08-.38-.11-.16.22-.12.28.25.08.39.11m62.65-975.11.54,0v-.46a1.37,1.37,0,0,0-.52.1c-.07,0,0,.2,0,.32m-105.92,963a4,4,0,0,0-.67-.42s-.37.15-.36.22a2.5,2.5,0,0,0,.23.58l.8-.38m57.78-12.85c.09.1.16.26.27.28s.3-.08.45-.12c-.15-.15-.3-.3-.46-.45l-.26.28m-34.22-4.39-.18.36c.18,0,.39.15.5.11s.14-.24.19-.36l-.51-.11M362.59,209.39c.14,0,.3.12.41.08s.1-.18.14-.28c-.13,0-.31-.11-.4-.08s-.1.18-.15.28M350.86,101.7l-.4.23a5.27,5.27,0,0,0,.65.46,2.06,2.06,0,0,0,.38-.22l-.63-.47M317.61,1178.27l-.71.42a5.68,5.68,0,0,0,.75.35.73.73,0,0,0,.36-.21,4.12,4.12,0,0,0-.4-.56M348.29-12.39l1,.06a2.16,2.16,0,0,0,0-.56.77.77,0,0,0-.49,0,2.86,2.86,0,0,0-.46.54m25.34-3.43c.06-.2.1-.36.15-.51l-.41.15c.07.1.14.2.26.36m-10.1-4.47c0-.11,0-.22-.07-.33l-.66.24c.1.09.2.21.3.23a1,1,0,0,0,.42-.14M201.84-8.09c.14,0,.3.12.4.08s.11-.18.15-.28c-.14,0-.3-.11-.39-.08s-.12.18-.16.28m3.86-3.4-.22.65c.17,0,.45,0,.47,0a2.72,2.72,0,0,0,.24-.63l-.49,0M340.54-23.83c0,.12.06.23.08.34l.69-.25c-.11-.08-.2-.23-.33-.23s-.28.1-.44.14m-61.89,2.57c.12-.08.23-.14.37-.21-.16,0-.34-.15-.43-.11a1.51,1.51,0,0,0-.43.33h.49m47.07,1573.65,0,.3.37-.15Zm-24.41-13,.14.28.32-.21Zm22-13.09.35.14,0-.32Zm-30.66-9.77c0,.12,0,.26,0,.35s.28,0,.43,0c0-.12,0-.26,0-.35s-.28,0-.43,0m3.28-14.13.44-.07-.3-.47c-.1.08-.28.15-.3.24s.1.2.17.3M313,1480.89c.16-.06.38-.1.44-.18s-.13-.22-.2-.32c-.15.06-.38.08-.43.18s.11.2.18.32m-14.62.43c.29,0,.6.09.89.11,0,0,.08-.2.12-.31-.29,0-.6-.09-.88-.11,0,0-.08.2-.13.32m5.08-3.87-.4-.13,0,.25Zm-21.12-2.83.41.11c0-.09.15-.21.1-.27s-.24-.09-.39-.13l-.12.29m-17.24-21c.13.06.25.15.37.14s.22-.13.32-.2a1,1,0,0,0-.38-.16c-.11,0-.21.14-.31.21m18.39-14.18H283l.17.28Zm20-10.25c0,.11,0,.21,0,.31l.39,0c0-.1,0-.23-.09-.3s-.23,0-.35,0m-15.31-6.15.41-.2-.65-.3c-.06.1-.22.23-.18.3a1.26,1.26,0,0,0,.42.19m-11.66-1.77.47.19.18-.57a1.89,1.89,0,0,0-.52,0c-.1.06-.09.23-.13.34M273,1420l.76.1-.2-.32-.56.22m15.57-18.88c.09.12.16.3.28.32s.31-.08.48-.15c-.1-.11-.16-.3-.29-.33s-.31.1-.47.15m24.33-44.39.79.29c0-.12,0-.32-.08-.33a2.78,2.78,0,0,0-.71,0M261.81,1315a1.79,1.79,0,0,0-.43,0s0,.16,0,.26a1.4,1.4,0,0,0,.43,0c.06,0,0-.17,0-.25m28.59-4.81.3.25.14-.29Zm6.67-46.26v-.31l-.37.11Zm-13.8-10.61.41.13c0-.11.17-.23.12-.29s-.26-.09-.39-.13l-.14.29M301,1232.66c.25-.13.44-.23.63-.3-.16,0-.35-.12-.44-.08s-.1.2-.19.38m-52.34-11.23c0,.1-.15.24-.09.3s.24.08.38.11.15-.22.1-.29-.25-.07-.39-.11M245.56,1194c.08.1.15.25.26.28a1.56,1.56,0,0,0,.43-.13l-.44-.41c-.1.08-.18.18-.25.26M354,335l.27-.3-.78-.17c0,.11,0,.27,0,.35a1.88,1.88,0,0,0,.48.13m-79.26-16-.27.18.36.1Zm87.92-112.71a1.64,1.64,0,0,0,.44,0s0-.17,0-.26a1.78,1.78,0,0,0-.44,0s0,.17,0,.26M377.61,19.18l-.44-.12c0,.11-.17.24-.12.3s.27.09.42.13.09-.2.14-.31M295.46-3.76l-.37.11.31.11ZM346.17-15l.77-.06c-.12-.07-.23-.19-.34-.19s-.23.12-.43.25M236.35-16.44l-.64.32c.16,0,.36.11.45.07s.11-.21.19-.39m-7.93,1,.31-.2-.4-.1Z" transform="translate(-182.82 30.25)"/><path d="M219-23.7l-2.9,2.53L214.72-22l3-2.47,1.26.77" transform="translate(-182.82 30.25)"/><path d="M291.79,1551.17l-.52-3.15.78-.06.52,3.16-.78.06" transform="translate(-182.82 30.25)"/><path d="M320.7,1557.63l2.83.05c-.13.34-.26.66-.4,1l-2.33-1.15a.93.93,0,0,0-.1.11" transform="translate(-182.82 30.25)"/><path d="M313.74,1252.46l-.13.29c-.14,0-.34,0-.39-.11s.07-.19.11-.28l.41.1" transform="translate(-182.82 30.25)"/><path d="M211.93-22.81c-.17,0-.43,0-.49-.13s0-.31.16-.35.33.06.5.1Z" transform="translate(-182.82 30.25)"/><path d="M221.82-25.51c.06-.13.07-.3.18-.34s.32.06.49.1c-.06.12-.07.31-.18.35s-.32-.07-.49-.1" transform="translate(-182.82 30.25)"/><path d="M197.89-15c-.1-.09-.27-.17-.27-.27s.17-.18.26-.26c0,.17,0,.35,0,.53" transform="translate(-182.82 30.25)"/></svg>