<svg id="Layer_1" data-name="Layer 1" xmlns="http://www.w3.org/2000/svg" viewBox="0 0 592.71 98.21"><title>container_bg1</title><path d="M321.78,200.93a26.59,26.59,0,0,1,4.23-.76c4.45-.08,8.91,0,13.36,0l22.44.08,16.92.06c7,0,13.94-.19,20.91,0,9.49.26,19,.49,28.46,1.24,6.27.48,12.52,2.11,18.78,2.94,3,.41,6.11.06,9.17.3,4,.3,7.93.82,11.89,1.29l13.35,1.74,15.26,1.77c4.29.54,8.58,1.08,12.87,1.77.95.15,1.85,1,2.79,1.16a27.18,27.18,0,0,0,3.78.28l3.37.22c.11,0,.23-.09.32,0,3,1.92,6.17-.61,9.22,1a29.8,29.8,0,0,0,5,1.78c1.35.42,2.72.71,4.31,1.12l.61-1.7,1.91,4.31c1.9-4.48,4.51-2,6.9-2.31,1.16-.16,2.31-.84,3.46-.91.69,0,1.38.66,2.33,1.18,1.39-2.33,3.37-2.18,5.45-1.32a1.09,1.09,0,0,0,1-.24c1.4-.93,2.77-1.76,3.54-.2a27.93,27.93,0,0,1,4.94-1.18c3.57-.15,7.14-.14,10.7,0,2,.09,3.92.76,5.88,1.05a7.83,7.83,0,0,0,3,0,2.42,2.42,0,0,1,3.27,1.73l2.35,0-.63.67.21.37.38-1.09,1.56.23,2.72-.35-.54,4.67a41.18,41.18,0,0,1,3-3.86,1.74,1.74,0,0,1,1.67-.31,10,10,0,0,0,4,.54l1.16,3c-.15-3.64.81-3.17,1.76-3.08,1.33.13,2.68-.06,4,.11a6.73,6.73,0,0,1,2,1.06c1.24-1.64,2.78-1.57,4.35-1.41a16.12,16.12,0,0,0,3.09-.26c.16,0,.36-.23.47-.11,1,1.07,1.81.48,2.89-.4,1.26-1,2.83-.71,4.26-1,.36-.06.73-.07,1.22-.1l-.19,2.23c.63-.33,1.35-.31,1.68-1,1.6-3.24,3.61-2.74,5.6-2.93.89-.09,1.77-1,2.66-1.19,3.47-.94,6.95-1.72,10.42-2.68.59-.17,1.12-1.07,1.71-1.45.41-.27,1-.55,1.28-.21a7.55,7.55,0,0,1,.16,2.26c.07,1.34-1.36,2.73,0,4l0,0c.24,1.41.83,3,.63,4.19-.44,2.66-.91,5.33-1.48,8.11l-.38-3c-1.57,4.1-1.55,4-4.1,2.32-.49-.33-1.16.17-2.15.37L648,229c-1.1,1.56-7,3-7.74,1.91-1.25,3.64-3.31,4.25-5.28,5.14a10.59,10.59,0,0,1-2.09.75c-.38.09-.78-.17-1.19-.21a.81.81,0,0,0-.65.22,10.46,10.46,0,0,1-7.51,3.34c-.56,0-1.11.58-1.67.67a3.43,3.43,0,0,1-1.29-.24,13.55,13.55,0,0,1-1.46,1.28,10,10,0,0,1-7.34,1.7,17.2,17.2,0,0,0-6.2-.18c-5.67,1.08-11.31-.54-17,.52-2.24.42-4.54-.47-6.82-.58a11.84,11.84,0,0,0-2.6.62c-1.34.24-2.69.38-4,.6a48.53,48.53,0,0,0-5.16,1c-.7.19-1.33,1.26-2,1.51-2.87,1-5.71,2.82-8.7,1.27-.42-.22-1,.84-1.5.88-1.46.12-2.92-.05-4.39,0-.51,0-1,.68-1.5.75a14.43,14.43,0,0,1-4.28.27c-.51-.08-1-1.52-1.44-2.35a11.93,11.93,0,0,1-.77,3c-.38.55-1.07.33-1.61.69a9,9,0,0,1-1.56.79c-2.69.75-5.32-1-8-.8-2.39.17-4.76,1.66-7.14,2.53-.45.17-1,.54-1.35.2-1.35-1.32-2.7-.12-4-.14-.75,0-1.5,1.17-2.27,1.73a13.22,13.22,0,0,1-3,2c-2.21.76-4.45,1.77-6.68,1.7-3.18-.11-6,2.52-9.07,3.2-2.13.47-4.21,1.78-6.35,2.22s-4,2.06-5.78,4.43a15.15,15.15,0,0,1-4.59,3.72c-2.39,1.47-4.78,3.22-7.25,3.81-5.38,1.27-10.8,2-16.21,2.9a44.93,44.93,0,0,1-6.1.81c-1,0-2.07-.88-3.11-.92-2.29-.1-4.59.28-6.88.08a9.4,9.4,0,0,0-5.12.75c-1.76.84-3.77.13-5.66-.1-6.6-.78-13.2-2.1-19.81-2.36-5.17-.21-10.33.87-15.49,1.34-.46,0-.93-.25-1.4-.24-1.15,0-2.3.08-3.44.16l-11,.81c-1,.06-2.1-.06-3.15,0a50.45,50.45,0,0,0-6.07.15c-2.38.31-4.73,1-7.11,1.46a8.15,8.15,0,0,1-2.2-.06c-2.84-.26-5.67-.66-8.49-.68-1.29,0-2.56,1-3.86,1.07-6.19.27-12.38.33-18.57.51-4.06.12-8.11.69-12.17.37-2.9-.24-5.81,1-8.58.12-3.16-1-6,1-9.13.2-1.61-.42-3.27,1.4-4.94,1.5-4,.27-8.11,0-12.16.19-3.35.14-6.68.64-10,.81-1.91.1-3.84-.24-5.74-.12-1,.07-2,1-3,1-2.64.05-5.3-.29-7.95-.24-3,0-6.08.36-9.12.49-2.78.12-5.56.06-8.34.17l-12.82.59c-2.47.11-5,.06-7.42.27-1.09.1-2.19,1.32-3.21.93-2.56-1-4.12,2.86-6.37,3.18-1,.14-1.93.78-2.91.86-2.63.22-5.27.29-7.92.31-.77,0-1.58-.65-2.34-.58-5,.46-9.9,1.11-14.86,1.56-3.32.29-6.65.43-10,.59q-7.91.35-15.84.59c-2.9.08-5.81.08-8.72,0a13.4,13.4,0,0,1-2.07-.51,14.12,14.12,0,0,0-3.82-.54c-3.82.4-7.58,1.2-11.39,1.55-6.54.6-13.08,1.16-19.64,1.41-5.81.19-11.82,0-17.76.06-4.64,0-9.27.15-13.91.13-1.25,0-2.58.67-3.69-1.86-.28-.64-1-.7-1.49-1-.67-.4-1.34-.77-2-1.15l0-1.08,1.11-1.2c.12,0,.24-.08,0,0l-.07.07-.89-1.42c-.75-2.44-1.61-4.83-2.2-7.38a31,31,0,0,1-.21-5.06l-1.47,5-.42-.27c.18-1.29.32-2.62.57-3.84.32-1.53.75-3,1.21-4.78l-2.26-.14,1-3.74c-1.46-2.63-1.55-4-.55-8.21a2.58,2.58,0,0,0-.62-1.62c.28-3-1.1-7.1.69-9.88L68.41,247a3.05,3.05,0,0,0,.23-.94c-.21-3.29.79-4.89,2.16-6.1.18-.16.07-1.29.09-2-.32,0-.71-.09-.94.18-.68.79-2.52-.14-2.81-1.7-.62-3.37-1.86-6.51-1.68-10.18.07-1.5.07-3,.11-4.78l-1.26.73-.58-3.69c-.22-1.29-.5-2.56-.69-3.86-.29-2-.58-4.06-.75-6.09,0-.37.53-1.19.82-1.12,3.47.75,6.32-2.38,9.55-3a32.77,32.77,0,0,1,7.61-.74c3.21.12,6.46,1,9.66,1.08,3.63.06,7.16-.65,10.84-.67,1.7,0,3.44.72,5.17,1.13.43.1.88.39,1.29.32a33.33,33.33,0,0,1,4.39-1c5.08-.24,10.17-.25,15.25-.44,3.62-.12,7.24-.55,10.86-.58,2,0,4.1.62,6.13.56,2.21-.06,4.39-.75,6.61-.88,1-.06,2,.65,3,.91a6.85,6.85,0,0,0,2.06.26c4.1-.18,8.2-.37,12.29-.66,1.65-.12,3.27-.6,4.92-.7a55,55,0,0,1,6.6.06c.45,0,.93.89,1.11,1.07a23.3,23.3,0,0,1,4.59-1.31c4.33-.31,8.69-.33,13-.56,2.75-.15,5.49-.54,8.24-.7,4.66-.29,9.34-.35,14-.62,1.92-.1,3.84-.45,5.75-.7.05,0,.11-.08.15-.06,2.77,1.37,5.31-.92,8.05-.47s5.48.09,8.22.11c.15,0,.31.2.46.31l-.64.53.16.36.45-.93a31.27,31.27,0,0,1,13.76-.1c2.31.45,4.64.09,6.94,0,3.69-.19,7.37-.56,11.07-.69,2-.07,4.08.35,6.12.32,3.28,0,6.56-.32,9.84-.32s6.66.31,10,.32c4.38,0,8.76-.19,13.14-.2,2.33,0,4.67.16,7,.38.36,0,.73.71,1.09,1.09-.11.17-.22.34,0,.07-.06.43,0,.16,0-.11M611,223.34c0-.31.08-.62,0-.11-.05-.5,0-.17,0,.16l-.59,1.39.37.31.19-1.76m-6.65,18.8-.46-1.16-.3.66.79.43.39.28-.42-.22M70.16,233.33l-.2-.65-.09.15.33.42,1.16,2.35.32-.94-1.52-1.32M64.32,213.4,64,214a16.52,16.52,0,0,0,1.38,3.86c.32.43,1.18-.67,2.07-1.24l-3.12-3.2m89.16,61.22,2.49,4.9c.32-3.23.19-3.5-2.49-4.9M66.67,220.15l-.57.29.93,4.25.55-.3-.92-4.24m2.9,5.78-.5.21.68,3.72.49-.2-.67-3.73m534.81,10.4-.56.6.71,2.11.5-.54-.64-2.16M569.81,221.8l0,1,1.28.17,0-.95-1.28-.22M73.93,248.54l.45-.43-.74-2-.34.35.63,2.12m535-28.61.19.57,1-1.14-.18-.57ZM72.75,243.35c-.33-.3-.5-.55-.68-.59s-.25.47-.21.6a1.59,1.59,0,0,0,.43.77c.09.06.24-.38.46-.79m525.85-15-.32,1,1,.71.19-.72-.84-1m28.31-6.13.24-.21-.46-2-.28.24ZM74.63,244.89a3.22,3.22,0,0,0,.22-.92,3.26,3.26,0,0,0-.42-.76c-.08.21-.24.46-.21.64a5.24,5.24,0,0,0,.41,1m507.22-26.62,0-.84-1,.21v.58l1,.05M77.94,278.73l0,.87.88.23v-.72l-.86-.38m566.27-51.25.38-2.63a3.82,3.82,0,0,0-.67,1.81c0,.1.1.28.3.82M231.64,200.78l-.31.39.46,1c.07-.11.21-.28.2-.32-.1-.37-.23-.71-.36-1.06m310,49-.21-.59-.6.86.14.4.67-.68m-14.83-21.71a4.38,4.38,0,0,0,.23-.81c0-.1-.15-.39-.2-.36s-.23.26-.34.4l.31.77m104.54-6c.25.17.42.37.59.37s.17-.37.25-.57c-.15-.19-.3-.44-.47-.52s-.19.35-.37.73M74.76,284.39l-.21.32.59,1.31.22-.32-.6-1.3m456.9-65a4.33,4.33,0,0,0-.14.72c0,.09.13.22.19.33a3.82,3.82,0,0,0,.18-.65c0-.07-.12-.22-.23-.39m5.67,2.58c.27.34.39.61.5.59s.2-.32.29-.49c-.12-.21-.24-.53-.39-.6s-.23.27-.41.5m63.7-1.52.44-.89-.57-.68-.28.6.41,1M636.2,232.6l.06.52.72-.39-.05-.41Zm10.36-11.29.25.46a2.83,2.83,0,0,0,.2-.61c0-.09-.11-.25-.18-.38l-.27.52M354.38,209.46l.28.34.22-1.27-.23-.17-.27,1.1m280.33,7.46-.14.77c.09,0,.2.11.26,0a1,1,0,0,0,.11-.49c0-.1-.12-.19-.22-.33m-24.48,18.55a1.49,1.49,0,0,0-.14.45,1.1,1.1,0,0,0,.2.38l.21-.59-.26-.24m-2.86,3.45a1.23,1.23,0,0,0,.18-.41,1.69,1.69,0,0,0-.11-.49,2.24,2.24,0,0,0-.24.51c0,.06.11.25.17.39m-7.48-10.61c.15-.08.31-.09.32-.17a4.4,4.4,0,0,0,0-.72c-.09,0-.23,0-.25.14a5.13,5.13,0,0,0-.07.75M574,218.87a2.59,2.59,0,0,0-.25-.33c-.09.18-.17.39-.24.6s.18.29.21.26a3.2,3.2,0,0,0,.29-.52m-38.42-.25a1.6,1.6,0,0,0,.11-.43,1.72,1.72,0,0,0-.15-.43,2.21,2.21,0,0,0-.16.53c0,.1.12.22.2.34M152.4,261.87a5.5,5.5,0,0,0,.22-.83c0-.09-.17-.39-.21-.37a.77.77,0,0,0-.3.46,2.74,2.74,0,0,0,.29.73m-72.65,3.06.15-.35a1,1,0,0,0-.24-.17s-.09.16-.09.17.12.24.18.35m568.63-42.61-.25-.18c0,.09-.06.24-.05.25a1.82,1.82,0,0,0,.24.19l.05-.25M72.25,220l.21-.2a1.72,1.72,0,0,0-.15-.42s-.13.11-.2.18l.15.44m562.32,13.74a1.93,1.93,0,0,0,.1.21,2.67,2.67,0,0,0,.15-.36s-.06-.13-.09-.21l-.16.36m-4.1-13.05c-.07-.07-.17-.22-.21-.18a1.41,1.41,0,0,0-.17.4l.3.26c0-.16.06-.32.08-.48M130.26,261.52l0-.63-.8-.27,0,.44.79.45M152.74,207l.23-.21c-.05-.15-.09-.38-.16-.43s-.15.12-.23.19l.15.45m437.54,12.87a2.94,2.94,0,0,0,.17-.35.48.48,0,0,0-.07-.2.82.82,0,0,0-.23.13l.13.42m-5-.73v-.47c-.05,0-.14,0-.15,0s0,.31,0,.46l.15,0M578.62,233c.07-.12.18-.21.2-.34s-.09-.26-.13-.39l-.27.44.21.29m-50.68-15.13a3.9,3.9,0,0,0,0-.46s-.11-.12-.12-.1a3.76,3.76,0,0,0-.16.39l.26.18m-10.83-2.67c.07-.09.19-.18.19-.27a1.39,1.39,0,0,0-.13-.41c-.07.09-.19.17-.19.27a1.43,1.43,0,0,0,.13.41m-140.19-8.82a2.24,2.24,0,0,0,.19-.28s0-.21-.07-.21a.82.82,0,0,0-.24.09l.13.4M70.79,267c0-.05.12-.13.11-.15s-.1-.29-.15-.43c0,.05-.12.13-.11.15s.1.29.15.42M63.5,209.87h.17L63.6,209h-.16l.06.91m1.69,0,.21.36a1.61,1.61,0,0,0,.14-.4,2.8,2.8,0,0,0-.29-.48l-.06.51m2.69,9.27a.92.92,0,0,0,.15-.36,1.18,1.18,0,0,0-.17-.37.87.87,0,0,0-.16.36c0,.11.11.25.18.38m.39-3a1.61,1.61,0,0,0-.24-.2.4.4,0,0,0-.06.21,4,4,0,0,0,.17.38l.13-.38m4,24.82.11-.15c-.06-.14-.12-.27-.18-.4a1.08,1.08,0,0,0-.11.14l.18.4m-2.4-28.47a1.92,1.92,0,0,0-.24-.2.42.42,0,0,0-.05.19,2.88,2.88,0,0,0,.17.36l.12-.35m583.27-2L653,211s.11.09.12.06.09-.29.13-.43l-.13-.07m-6.06,5.95c0,.07,0,.18.07.2s.08,0,.13-.07l-.12-.33-.08.2m-10.62,8.93c0,.13-.08.25-.11.38s.08.12.11.11a1.08,1.08,0,0,0,.2-.22l-.2-.26m-8.37,2.27.08.19a2.66,2.66,0,0,0,.17-.31s0-.11-.07-.18l-.17.31m.36,9.06s.12-.05.11-.06c0-.17,0-.33,0-.48,0,0-.11,0-.11.06s0,.32,0,.48m-9.74-2.24a1.68,1.68,0,0,0-.06.48c0,.09.14.11.23.17a1.67,1.67,0,0,0,.06-.46c0-.1-.15-.12-.23-.18m-6.4,7.18.12.07a.84.84,0,0,0,0-.22s-.08-.09-.11-.07,0,.13,0,.21m-30.45-15.78s.09-.06.11-.11a.54.54,0,0,0-.05-.2s-.09.05-.11.11a.72.72,0,0,0,0,.21m-13.62-9.81.18-.31a1.51,1.51,0,0,0-.25-.19s-.07.1-.11.16l.18.34m-12.33,31.38,0,.24s.1.09.12.06,0-.15,0-.23Zm-2.32-27.76c0,.08,0,.21.07.23s.08-.07.13-.12,0-.21-.07-.23-.09.07-.13.12m-10.12,6.46s-.08-.08-.1-.05,0,.12,0,.19.08.08.1.06,0-.13,0-.2M180,207.08v-.27h-.17a.89.89,0,0,0,.06.26s.08,0,.12,0m359,40.72a2.21,2.21,0,0,0-.15.34s.05.19.08.18a.81.81,0,0,0,.21-.12l-.14-.4m-4.69-28.89s.1-.08.11-.14a.74.74,0,0,0,0-.22l-.17.23.1.13M532.6,236l.13.09a.85.85,0,0,0,0-.25c0-.06-.09-.07-.13-.09l0,.25M151.84,206.89a.63.63,0,0,0,0-.21s-.07,0-.11-.06a.66.66,0,0,0,0,.2s.07,0,.11.06M112.15,216l.1.19a2.78,2.78,0,0,0,.14-.34,1.17,1.17,0,0,0-.1-.18l-.15.33m401.17-.9.16.36a3.36,3.36,0,0,0,.13-.38.41.41,0,0,0-.08-.18,1.62,1.62,0,0,0-.21.2M70,221l0-.5a.6.6,0,0,0-.21,0,.51.51,0,0,0,0,.24A1.22,1.22,0,0,0,70,221m-2.41-12.5-.2-.06.07.2.12-.14m-1.19,5.18-.12,0,.12.32a.43.43,0,0,0,.07-.16.63.63,0,0,0-.07-.2m11.81,80.1a.62.62,0,0,0,0-.2s-.07,0-.11-.06a.66.66,0,0,0,0,.2s.07.05.11.07M76.83,292l.25.09a1.27,1.27,0,0,0,0-.23.87.87,0,0,0-.24-.1V292M66.18,225.26l.12-.05-.12-.34c0,.06-.07.11-.07.17a.79.79,0,0,0,.07.21M69.93,256l-.09-.18c0,.08,0,.18,0,.22a.77.77,0,0,0,.14.2l0-.24m582.56-43.44.11,0-.05-.19Zm-5.14,12.1.11-.07-.07-.16Zm-4.6-11.1.06-.17-.12,0Zm-4,15.25s.1,0,.13,0,0-.14,0-.21-.1,0-.13,0a1,1,0,0,0,0,.21m-5.2-1.75,0-.22-.18.15s.05.14.09.15.08,0,.11-.08m-7.8-8.7a.72.72,0,0,0-.06-.22s-.08.06-.12.1,0,.19.06.22.07-.05.12-.09m0,7.31c0-.15,0-.3,0-.44s-.07,0-.11-.06l-.05.44s.07,0,.12.07m-1.38-2.57-.05.2h.09Zm-1.26,10.53,0-.2s-.08-.08-.1-.05a.57.57,0,0,0-.05.19l.11.06m-7.93,8.46a.53.53,0,0,0,.06-.18.46.46,0,0,0-.07-.16.62.62,0,0,0-.06.19c0,.05.05.1.08.16m-5.08-9.27V233l.1-.08Zm-3.63-10.05.12,0v-.2s-.08,0-.11,0,0,.12,0,.18m-2.41,7.62-.07-.21-.12.33s.08.11.11.09a.75.75,0,0,0,.07-.21m-.75,5.82.07-.23-.21-.09a1.27,1.27,0,0,0,0,.26s.08,0,.12.07m-.5,1.75,0-.38-.12.1.08.28M596,230.07s.11-.08.12-.14a.64.64,0,0,0-.05-.24s-.11.08-.13.14a.79.79,0,0,0,.05.24m-16.32-12.39.11-.39s-.12,0-.12,0a1.86,1.86,0,0,0,0,.36m-15.72,25.43a1.21,1.21,0,0,0,0,.22s.06,0,.1,0a.94.94,0,0,0,0-.22s-.06,0-.09,0m-1.67-14.31.09-.15-.11-.07Zm-17.13-3.45H545l0,.19Zm-4,6.89,0-.2s-.09-.08-.11-.06,0,.13,0,.2l.11.07m-7.64-8.89-.11-.31a.68.68,0,0,0,0,.22s.08,0,.14.09m-4.19,26.17s.09.07.11,0,0-.12,0-.19-.08-.07-.11,0a.88.88,0,0,0,0,.2m-10.12,1.58s.09-.07.1-.13a1,1,0,0,0,0-.22l-.15.22.1.13m-320.3-43.3-.12-.13,0,.39s.1,0,.13,0a1.2,1.2,0,0,0,0-.24m-3.28,39.95.07.13,0-.18ZM150.7,206.93a1.09,1.09,0,0,0,0-.22s-.06,0-.1,0a1.18,1.18,0,0,0,0,.22s.06,0,.1,0m-70.33-1.57,0,.22s.1.07.12,0a.61.61,0,0,0,0-.21l-.12-.06M75.62,247l.06.18,0-.16Zm-6.43-24.87-.06-.38a.52.52,0,0,0-.05.18c0,.06.05.11.11.21m4.43,54.74.15.31a.76.76,0,0,0,0-.23s-.08,0-.15-.08m.74,3.91-.09-.15,0,.2Z" transform="translate(-62.28 -199.37)"/><path d="M71.73,285.79l1.06,1.36-.25.7-1-1.41.23-.65" transform="translate(-62.28 -199.37)"/><path d="M651.59,229.51l-1.18.24v-.39l1.18-.24v.39" transform="translate(-62.28 -199.37)"/><path d="M654.36,215.11l.06-1.42.36.21-.46,1.16,0,0" transform="translate(-62.28 -199.37)"/><path d="M540.89,217l.11.06a.6.6,0,0,1,0,.2s-.07,0-.1-.05l0-.2" transform="translate(-62.28 -199.37)"/><path d="M72.37,289.27c0,.08,0,.22,0,.25s-.12,0-.13-.07a.76.76,0,0,1,0-.25Z" transform="translate(-62.28 -199.37)"/><path d="M70.93,284.44s-.11,0-.13-.08a.81.81,0,0,1,0-.25s.12,0,.14.08a.91.91,0,0,1,0,.25" transform="translate(-62.28 -199.37)"/><path d="M75.89,296c0,.05-.05.14-.09.15s-.07-.08-.11-.12l.19,0" transform="translate(-62.28 -199.37)"/></svg>