<svg id="Layer_1" data-name="Layer 1" xmlns="http://www.w3.org/2000/svg" viewBox="0 0 61.72 57.54"><title>cross</title><path d="M196.12,204.95a2.19,2.19,0,0,1,.47.29c.39.4.76.83,1.14,1.24l1.9,2.09,1.44,1.57c.59.65,1.22,1.26,1.78,1.93.78.91,1.56,1.81,2.26,2.79.47.64.77,1.44,1.19,2.13.2.34.52.57.75.88s.56.84.84,1.27l.9,1.46,1.06,1.64c.29.47.59.93.86,1.42.06.11,0,.3.07.41a2.17,2.17,0,0,0,.29.38l.26.34s0,0,0,0c0,.54.62.48.66,1a3,3,0,0,0,.18.7c.06.18.13.34.21.54l.3-.18-.46.77c.81-.45.68.13.93.3s.32.09.43.19,0,.22,0,.37c.46-.2.61,0,.67.31,0,0,.06.06.12.05.26,0,.5,0,.34.29a2.5,2.5,0,0,1,.6.28,9.21,9.21,0,0,1,.93,1,5.2,5.2,0,0,1,.36.67.63.63,0,0,0,.27.26c.18.08.24.25,0,.53l.2.21-.15,0,0,.07.19-.12.1.17.29.2-.73.59c.35-.11.61-.22.82-.26a.16.16,0,0,1,.19.11c.07.16.11.34.27.43l-.33.52c.52-.51.53-.36.6-.26s.24.23.34.38,0,.21,0,.33a.44.44,0,0,1,.59.2,1.3,1.3,0,0,0,.31.24s.06,0,.06,0c-.07.24.09.23.31.2s.35.16.52.25l.12.1-.34.29c.1,0,.16.08.29,0,.61-.3.72-.05.92.1s.29,0,.41.08l1.31.57c.08,0,.25,0,.36,0s.17,0,.14.09a2.37,2.37,0,0,1-.32.32c-.19.19-.52.25-.59.55h0a4.69,4.69,0,0,1-.56.63l-1.31,1,.4-.44c-.74.42-.73.41-.7,0,0-.09-.13-.08-.24-.14l-.19.36c-.32.11-1.05-.22-1-.43a1.37,1.37,0,0,1-1.21.23,1.09,1.09,0,0,1-.29-.08s0-.09-.07-.13a.08.08,0,0,0-.09,0,1.2,1.2,0,0,1-1.15-.21c-.05,0-.18,0-.24-.06s-.06-.1-.08-.15a2.37,2.37,0,0,1-.32,0,.92.92,0,0,1-.89-.42,1.36,1.36,0,0,0-.51-.58c-.65-.36-.91-1.09-1.56-1.45-.26-.14-.33-.47-.51-.69s-.22-.09-.32-.15l-.44-.28a4.13,4.13,0,0,0-.59-.33c-.09,0-.3.05-.4,0-.4-.12-.91-.12-.94-.61,0-.07-.21,0-.26,0s-.25-.27-.39-.39-.19,0-.24,0a1.15,1.15,0,0,1-.41-.35c0-.06.14-.29.22-.45a3.61,3.61,0,0,1-.5.34c-.11,0-.14-.05-.24,0a1.06,1.06,0,0,1-.25,0c-.34-.14-.32-.62-.57-.83a2.85,2.85,0,0,0-1-.29c-.06,0-.16,0-.15-.09.07-.3-.22-.26-.33-.38s-.3,0-.45,0a1.83,1.83,0,0,1-.54,0,1.78,1.78,0,0,1-.82-.37c-.26-.3-.88-.19-1.24-.38s-.62-.13-.87-.27a1.53,1.53,0,0,0-1.13.09,2.4,2.4,0,0,1-.93.1,3.29,3.29,0,0,1-1.17-.13,19.8,19.8,0,0,1-1.8-1.07,3.6,3.6,0,0,1-.64-.44c-.09-.09-.05-.31-.13-.41s-.43-.38-.6-.61a.78.78,0,0,0-.54-.36c-.27,0-.34-.32-.47-.53a20.47,20.47,0,0,0-1.34-2.13,9.35,9.35,0,0,0-1.51-1.22s0-.12-.08-.16a4.25,4.25,0,0,0-.31-.29l-1-.89c-.1-.09-.17-.2-.26-.29a3.92,3.92,0,0,0-.53-.54c-.25-.17-.54-.29-.81-.45a.64.64,0,0,1-.18-.21,8.44,8.44,0,0,0-.62-.87c-.11-.12-.36-.09-.48-.21-.56-.53-1.09-1.09-1.63-1.64a8.31,8.31,0,0,1-1.07-1.07c-.21-.3-.63-.39-.73-.78s-.65-.42-.79-.81c-.07-.21-.47-.11-.63-.24-.38-.34-.68-.75-1-1.1s-.65-.53-1-.82-.29-.39-.46-.55-.3,0-.39-.14-.4-.53-.63-.77-.56-.51-.83-.78l-.72-.75L176,208.53c-.22-.22-.42-.45-.66-.65s-.37,0-.4-.17c-.08-.38-.75,0-1-.14s-.27-.07-.36-.15a7.92,7.92,0,0,1-.7-.7c-.06-.07,0-.24-.11-.3l-1.45-1.17c-.32-.27-.61-.56-.9-.85L169.11,203c-.25-.26-.49-.54-.72-.82-.06-.07-.06-.18-.1-.27a1.22,1.22,0,0,0-.24-.44c-.37-.3-.79-.54-1.15-.85-.62-.53-1.23-1.07-1.8-1.65s-1-1.12-1.47-1.68L162.48,196c-.1-.12-.31-.15,0-.62.07-.12,0-.19,0-.28v-.36l.15-.16.26-.07h0l.13-.29c.28-.42.54-.84.85-1.26a9.86,9.86,0,0,1,.69-.74l-.81.57v-.08c.19-.17.39-.34.58-.49l.77-.57-.17-.24.6-.44a2.83,2.83,0,0,1,1.1-1.22.76.76,0,0,0,.17-.29c.44-.4.9-1.12,1.43-1.34l.3-.53a.88.88,0,0,0,.15-.11,1.69,1.69,0,0,1,1-.66,2.12,2.12,0,0,0,.28-.27s0-.08-.1-.06-.19-.26,0-.51a13.61,13.61,0,0,1,1.28-1.61l.68-.67-.21,0,.47-.58.48-.62c.26-.32.52-.63.79-.94,0-.06.21-.12.22-.08.18.44.85.26,1.21.48a2.58,2.58,0,0,1,.73.62c.25.32.39.76.64,1.08s.68.59,1,.94a2.2,2.2,0,0,1,.27.66c0,.06,0,.14.06.17a2.77,2.77,0,0,1,.5.28c.46.45.88.94,1.33,1.4s.68.62,1,1,.25.48.43.66.47.31.67.5.07.28.12.41a.6.6,0,0,0,.13.23c.37.36.74.73,1.12,1.07.15.14.36.23.51.37a4.33,4.33,0,0,1,.54.63s0,.21-.06.26a2,2,0,0,1,.57.25c.41.37.77.78,1.17,1.15s.54.44.79.68l1.26,1.23a6.36,6.36,0,0,0,.58.44h0c0,.45.58.37.74.69a4.31,4.31,0,0,0,.67.79s0,.06,0,.09h-.13l0,.07.17-.09a2.55,2.55,0,0,1,1.17,1.28,2.28,2.28,0,0,0,.59.65c.34.32.7.61,1,.94s.3.43.47.62.6.57.88.87.52.67.8,1l1.14,1.2a6.19,6.19,0,0,1,.54.71s0,.17-.06.25h0m21.7,29.52h0l0,0-.25.14v.08l.27-.22m-3.32,2,.13-.2-.12.06v.14m-44-50.67.07-.11h0l0,.09-.23.45.16-.1.06-.33m2.3-3.4-.11.05a5,5,0,0,0-.43.68c0,.09.19,0,.34,0l.19-.75m-1.22,17.21-.48.93c.48-.43.51-.48.48-.93m.47-16H172l-.52.7h.09l.52-.69m-.57,1.1-.07,0-.46.6.07,0,.47-.6m43.83,51-.14,0L215,236l.12,0,.26-.35m-.91-5.1-.15.13.09.14.14-.13-.08-.15m-45.72-42.25.1,0,.22-.36-.08,0-.24.36m49.41,45.51-.07.1.25-.07.07-.09Zm-48.78-46.36c0-.07,0-.13,0-.15s-.09,0-.1.07a.42.42,0,0,0-.07.15s.07,0,.15-.07M216,234l-.17.11,0,.18.12-.08L216,234m3.37,1.7h.05l.26-.32h-.06ZM169.3,187.86a.94.94,0,0,0,.15-.11.88.88,0,0,0,.07-.15.47.47,0,0,0-.11.07,1.56,1.56,0,0,0-.11.19M216,231.16l.12-.12L216,231l-.08.08.08.1M164.85,193l-.12.12,0,.12.1-.1,0-.14m55.29,45,.42-.33a1.09,1.09,0,0,0-.32.19,1,1,0,0,0-.09.14m-31.61-41.52-.08,0-.1.18.06,0,.12-.18m19.42,35.38.07-.1-.18.07,0,.07.16,0m1.86-4.34.14-.09s0-.07,0-.07l-.09,0-.08.13m10,8.59s0,.09,0,.1.07,0,.1-.06a.38.38,0,0,0,0-.11s-.07,0-.14.07m-56-42.62-.06,0-.13.24.06,0,.13-.24m47.68,33.27-.12.09a.23.23,0,0,0,0,.06l.11-.07a.31.31,0,0,0,0-.08m.12.87c0,.07-.05.12,0,.13s.06,0,.1,0a.41.41,0,0,0,.05-.12s-.06,0-.11,0m5.77,5.53.17-.08,0-.14-.11.06-.1.17m1.31,4.82-.07.08h.12l.06-.06Zm2.56-.62,0,.08.11-.06a.25.25,0,0,0,0-.07l-.1,0m-23.57-28.21,0,.07.2-.16v0l-.18.13m23.16,26.55-.13.09s0,0,0,0l.08-.06s0,0,0-.06m-4.85.35-.08,0a.28.28,0,0,0,0,.07l.1-.06v-.06m-.75.22.08,0,.06-.08-.1,0a.4.4,0,0,0,0,.07m.89-2.13s0,0,.05,0l.11-.1s0,0,0,0l-.12.1m-.89-3.63,0-.07-.11.06s0,.06,0,.05l.1,0m-3.31-3.5L212,227l.05-.07L212,227a.22.22,0,0,0,0,.06m-38.6-29.35.13-.1s0-.07,0-.07a.16.16,0,0,0-.09,0,.81.81,0,0,0-.08.13m-6.41-6.47.06,0a.17.17,0,0,0,0,0l0,0,0,.07m54.33,46.48v0l0,0v0l0,0m-48.68-53.61h0l0-.07h0l0,.08M218.38,238l0,0,.07,0,0,0-.07,0m1.54-2.15s0,0,0,0l-.07,0v.06l.08-.06m-48.37-40.32.09-.09,0-.11-.06.06v.14m9.51-5.62h0a.38.38,0,0,0,0-.08s0,0,0,0l-.05.08m35.46,42.22.07,0,0,0h0l0,.07m-.33-.55.07-.06h0l-.07.06h0m-2.6,1.3.07,0a.33.33,0,0,0,0-.07l-.09,0,0,.06m-2.21-6.66.07-.06s0,0,0,0l-.07,0v0m-.55-1.35.06,0,0-.07-.06,0,0,.07M200,210.82l.06,0,0,0h0l0,.07m-34.14-20.17h0l0-.08h0l0,.07m7.37-8.85v0l.12-.14h0l-.12.14m.14.16,0,.07.07,0a.74.74,0,0,0,0-.1l-.08.07m-1.07,1.58.06,0a.34.34,0,0,0,0-.07l-.06,0a.33.33,0,0,0,0,.07m.45-.39a.3.3,0,0,0,0-.05l0,0,0,.07.06,0m-3.13,3.93h0l0-.07h0l0,.07m3.77-4.29v-.05l0,0,0,.07.06,0m50,53.72-.08,0v0l.07,0v0m-1.4.27,0,0h0l0-.06,0,0m-2.24.27-.06,0v0h.05l0-.05m-1.07-.44,0,0,.06,0,0,0-.06,0m-1.29,1.27h0l.07-.07h0l-.07.07m-.53-1.18-.07.06s0,0,0,0l.07-.06s0,0,0,0m-1.61.41v0l0,0s0,0,0,0l0,0m-.37-4.9h0l0,0h0l0,0m.24-2.58.06,0a.23.23,0,0,0,0,0h0l0,.06m-5.62,3.21,0,0s0,0,0,0l0,0Zm3.82-4,0,0h0l0,0h0m-1.82,0s0,0,0,0l0,0a.12.12,0,0,0,0,0l0,0m-28.21-36.28,0,0h0l0,0s0,0,0,0M208,231.36l-.06,0,0,0h0l0-.07m3.77-4.41h0l0,0,0,0v0m-2.62,2.21v0l0,0s0,0,0,0l0,0M181,189.81l0,0s0,0,0,0l0,0s0,0,0,0m-4.57-2.49,0,0,.06,0,0,0-.06,0m34.09,37.2,0,.06.07,0,0,0h0M172.25,184l.07-.07h0l0,0a.25.25,0,0,0,0,.05m1.55-2v0l0,0h0m-.82.63h0l0,.06,0,0,0,0m-10.2,12.55,0,0s0,0,0,0l0,0s0,0,0,0m.13-.39v0l0,0a.11.11,0,0,0,0,0l0,0m8.43-10.54h0l0-.06,0,0,0,0m-4,4.74,0,0,0,0,0,0,0,0M223,236.72h0l0,0Zm-2.22,1.19h0l0,0ZM222,236l0,0h0Zm-2.57,1.73h0l0,0h0l0,0m-.2-.71,0,0h0v0h0m.58-1.89,0,0h0l0,0h0m-1.06,1,.07-.06v0l-.07.06v0m.25-.48,0,0h0ZM217.39,237l0,0s0,0,0,0l0,0v0m-1.93.45,0,0,0,0,0,0,0,0m.91-1.73,0,0h0Zm1.15-1.71h0l0,0h0l0,0m-1.32.83,0,0-.06,0s0,0,0,0l0,0m-.91.73,0,0v0l0,0s0,0,0,0m-.3.2.06,0h0l0,0m.55-1.7h0l0,0h0l0,0m.37-3.17.07,0h0l-.05.05M210.85,233l0,0h0l0,0h0m1.93-2.12h0v0Zm-1-2h0l0,0Zm-1.34.59,0,0s0,0,0,0l0,0v0m.63-1.92,0-.05,0,0s0,0,0,0m-4.15,3.24s0,0,0,0l0,0s0,0,0,0l0,0m-1.1-.7h0l0,0,0,0v0m-21-35.63v0l-.06.05h0l0,0m-5.9,5.35v0l0,0Zm2-10,0,0h0l0,0h0m-5.61-6.94,0,0s0,0,0,0l0,0v0m-6.2,5.49,0,0,0,0ZM172,184.1l0-.06,0,0,0,0m-7.27,8.23,0,.06,0,0s0,0,0,0m-.48.63v0l0,0Z" transform="translate(-162.02 -181.41)" style="fill:#9e9d9b"/><polyline points="1.33 12 1.23 12.3 1.11 12.37 1.22 12.07 1.33 12" style="fill:#9e9d9b"/><polyline points="58.47 57.54 58.33 57.47 58.39 57.41 58.52 57.48 58.47 57.54" style="fill:#9e9d9b"/><polyline points="60.81 55.82 61.02 55.63 61.03 55.69 60.82 55.81 60.81 55.82" style="fill:#9e9d9b"/><path d="M212.63,227.29v0l0,0s0,0,0,0l0,0" transform="translate(-162.02 -181.41)" style="fill:#9e9d9b"/><path d="M162.92,194l0,0s0,0,0,0l0,0Z" transform="translate(-162.02 -181.41)" style="fill:#9e9d9b"/><path d="M163.48,193.15s0,0,0,0l0,0s0,0,0,0l0,0" transform="translate(-162.02 -181.41)" style="fill:#9e9d9b"/><path d="M162.27,195.27h0v0l0,0" transform="translate(-162.02 -181.41)" style="fill:#9e9d9b"/><path d="M76.25,205.06" transform="translate(-162.02 -181.41)" style="fill:none;stroke:#dddcd8;stroke-miterlimit:10"/><path d="M212.79,187.06a3.2,3.2,0,0,0,.8-.63c.1-.14.41,0,.92.27l-.1.12.16.13-.09-.27q1.48.59,3,1.14l0,0c.23.18.51.41.7.52a4.76,4.76,0,0,1,1.39,1.19c.08.1.52.43.79.65l0,0c.92.73,1.33,1.33,1.12,1.31s.14.43.25.67c.43,1,.61,1.79.24,2.13-.13.12.18.52.22.74l-.14-.1-.12-.11.26.22c-1.13-.43-1,.34-1.11.81a3.07,3.07,0,0,1-1.53,1.72,4.19,4.19,0,0,1-1.19.25s-.09,0-.09,0c0,1-1.12.83-1.56,1.37s-1.22.4-1.73.7-.52.63-.75,1l-1.26,1.89c-.28.41-.47.92-1.18.83-.1,0,0,.18,0,.3s.18.38.1.36c-.67-.18-.09,1-.49,1.13s-.52.5-.79.74c-.85.78-1.71,1.53-2.53,2.32a18.24,18.24,0,0,1-1.52,1.61,12.52,12.52,0,0,1-1.84.87,3.19,3.19,0,0,0-.66.57c-.05,0-.07.14-.13.18a14.54,14.54,0,0,0-1.31.81,10.89,10.89,0,0,0-1,1,4,4,0,0,1-.59.58c-.68.45-1.4.87-2.09,1.31a2.36,2.36,0,0,0-.35.33c-.41.4-.79.83-1.23,1.18q-1.82,1.47-3.7,2.87c-.69.51-1.46.94-2.15,1.44-.89.64-1.74,1.32-2.61,2,0,0,0,.07-.06.06-.73-.08-.82.59-1.16,1a1.75,1.75,0,0,1-1.3.83c-.87,0-.86,1.1-1.81,1-.59,0-.68.55-1,.81s-.82.52-1.2.81c-.14.1-.18.33-.3.46s-.61.41-.73.82a4.26,4.26,0,0,1-1.7,2.12.51.51,0,0,0-.15.43,14.19,14.19,0,0,0,.39,3.73,2.55,2.55,0,0,1-.12,1.79c-.32.8-.74,1.48-1.85,1.32-.72-.11-1.52-.3-2.22-.39A2.15,2.15,0,0,1,175,238a7.84,7.84,0,0,1-1.14-.46c-.51-.26-1.3-.9-1.23-.38,0,.1-.37-.21-.6-.38-1.43-1-2.61-1.72-3.22-1.62a.82.82,0,0,1-.4-.18c-.76-.5-1.58-1.09-2.27-1.5-.26-.15-.22.13-.27.17l-1.94-1.23c-.14-.09-.29-.19-.45-.31a4.14,4.14,0,0,1-1-1.11,3.28,3.28,0,0,1-.48-1.07,3.18,3.18,0,0,1,.59-1.7c.51-.45.49-1.49.72-2.25s.19-1.6.7-1.93c.1-.06,0-.31.09-.43.44-.83.87-1.68,1.36-2.46.12-.19.47-.11.7-.18s.3,0,.31-.17c0-.89.85-.88,1.28-1.33.11-.12.23-.22.34-.34s.23-.64.83-.36c0,0,0,0,0,0,.23-.49.68-.72,1-1.13a1.91,1.91,0,0,1,.95-.63c.13-.05.3,0,.42-.11a3.5,3.5,0,0,0,.72-.42,3.61,3.61,0,0,0,.54-.64s-.07-.27,0-.22c1,.53,1-.13,1.36-.27,1.15-.39,2.24-.86,3.32-1.34s2.11-1,3.12-1.51,1.86-1.1,2.77-1.66c1.61-1,3.25-1.95,4.81-3,1-.71,2-1.56,3-2.31.8-.6,1.63-1.15,2.45-1.72.36-.25.73-.49,1.07-.78l4.31-3.66a35,35,0,0,0,2.72-2.48,27.82,27.82,0,0,0,1.75-2.35,6.08,6.08,0,0,1,1-1.13c1.58-1.24,3.15-2.45,4.66-3.72.45-.38.87-.79,1.31-1.18.08-.07.12-.18.27-.19a1.6,1.6,0,0,0,1.26-.71c.19-.26.61-.31.92-.46l0,0,.07-.07Zm4,.85-.09,0,.11.1Z" transform="translate(-162.02 -181.41)" style="fill:#9e9d9b"/><polygon points="50.71 5.72 50.77 5.65 50.73 5.6 50.66 5.68 50.71 5.72" style="fill:#9e9d9b"/><polygon points="55.45 6.41 55.31 6.29 55.41 6.36 55.45 6.41" style="fill:#9e9d9b"/><polygon points="58.29 8.73 58.24 8.68 58.26 8.71 58.29 8.73" style="fill:#9e9d9b"/></svg>