<svg id="Layer_1" data-name="Layer 1" xmlns="http://www.w3.org/2000/svg" viewBox="0 0 235.49 39.62"><title>yellowstroke</title><path d="M289,103.55a10.49,10.49,0,0,1-1.69.24c-1.77,0-3.53-.13-5.3-.2l-8.9-.35-6.71-.22c-2.77-.08-5.54-.1-8.3-.24-3.77-.19-7.53-.36-11.29-.74-2.49-.25-5-.92-7.44-1.3-1.21-.18-2.43-.06-3.64-.17-1.58-.14-3.15-.37-4.72-.58-1.77-.24-3.54-.5-5.3-.74-2-.26-4-.49-6.07-.75-1.71-.22-3.41-.46-5.12-.74-.38-.06-.74-.39-1.11-.46a10.77,10.77,0,0,0-1.51-.11l-1.34-.09s-.09,0-.13,0c-1.2-.77-2.46.25-3.67-.38a11.84,11.84,0,0,0-2-.71c-.54-.17-1.08-.28-1.72-.45l-.24.68L202,94.54c-.75,1.79-1.8.8-2.75.94-.46.07-.92.34-1.38.38-.27,0-.55-.26-.93-.46-.55.94-1.34.88-2.17.54a.43.43,0,0,0-.39.1c-.55.38-1.1.71-1.41.09a11.1,11.1,0,0,1-2,.49c-1.42.07-2.84.08-4.26,0-.78,0-1.57-.28-2.35-.39a3.11,3.11,0,0,0-1.19,0,1,1,0,0,1-1.31-.67H181l.25-.27-.09-.15-.15.44-.62-.08-1.08.16.19-1.87a16.59,16.59,0,0,1-1.18,1.56.69.69,0,0,1-.67.13,4,4,0,0,0-1.58-.19l-.48-1.19c.09,1.45-.3,1.27-.68,1.24-.53,0-1.07,0-1.6,0a2.69,2.69,0,0,1-.81-.41,1.67,1.67,0,0,1-1.72.6,6.41,6.41,0,0,0-1.23.13c-.06,0-.14.09-.19,0-.41-.42-.73-.18-1.15.19s-1.12.31-1.69.42c-.14,0-.29,0-.48.05l.05-.89c-.25.14-.54.13-.66.4-.61,1.31-1.41,1.13-2.2,1.22-.35,0-.69.4-1,.5-1.37.41-2.75.75-4.12,1.17-.23.07-.43.44-.66.59s-.39.23-.51.1a3,3,0,0,1-.09-.9c0-.53.51-1.11,0-1.61l0,0a6.1,6.1,0,0,1-.3-1.67c.15-1.07.3-2.14.5-3.26l.18,1.18c.58-1.66.58-1.63,1.61-1,.2.13.46-.08.85-.17l-.46-.77c.42-.63,2.76-1.26,3.07-.83a3.05,3.05,0,0,1,2.06-2.1,4.24,4.24,0,0,1,.83-.32c.15,0,.32.06.48.07a.32.32,0,0,0,.26-.09,4.19,4.19,0,0,1,3-1.41c.22,0,.44-.24.66-.29a1.37,1.37,0,0,1,.52.08,5.43,5.43,0,0,1,.57-.53,4,4,0,0,1,2.93-.73,6.91,6.91,0,0,0,2.48,0c2.26-.47,4.53.14,6.8-.31a11.89,11.89,0,0,1,2.73.19,5,5,0,0,0,1-.26c.54-.1,1.08-.16,1.61-.25a19.49,19.49,0,0,0,2.06-.41c.28-.08.53-.51.81-.61,1.15-.42,2.28-1.15,3.48-.54.17.09.39-.34.6-.36.59-.05,1.17,0,1.76,0,.2,0,.4-.28.6-.31a5.81,5.81,0,0,1,1.72-.12c.2,0,.39.6.58.94a4.77,4.77,0,0,1,.3-1.19c.15-.22.43-.14.64-.28a3.58,3.58,0,0,1,.62-.32c1.08-.3,2.14.39,3.2.32a11.52,11.52,0,0,0,2.87-1c.18-.07.41-.21.54-.08.54.53,1.08,0,1.62.05.3,0,.6-.47.91-.69a5.32,5.32,0,0,1,1.21-.79,8,8,0,0,1,2.69-.68c1.28,0,2.42-1,3.65-1.26.86-.18,1.7-.7,2.56-.87a4.1,4.1,0,0,0,2.34-1.76,6.09,6.09,0,0,1,1.86-1.48,11.15,11.15,0,0,1,2.94-1.51c2.18-.5,4.37-.75,6.55-1.09a18.29,18.29,0,0,1,2.47-.29c.42,0,.83.36,1.25.39.93.05,1.85-.08,2.78,0a3.83,3.83,0,0,0,2.07-.27,4.12,4.12,0,0,1,2.28.07c2.66.37,5.31,1,8,1.12a48.57,48.57,0,0,0,6.26-.4c.19,0,.37.11.56.11.46,0,.93,0,1.39,0,1.48-.06,3-.14,4.44-.2.42,0,.85,0,1.27.06a20.54,20.54,0,0,0,2.45,0c1-.1,1.92-.35,2.89-.5a3.32,3.32,0,0,1,.89,0c1.14.13,2.28.34,3.42.39.52,0,1-.37,1.57-.37,2.5,0,5,0,7.5.07a41.22,41.22,0,0,1,4.91,0c1.17.15,2.36-.3,3.46.11,1.26.47,2.45-.3,3.69.08.64.2,1.34-.5,2-.51,1.63,0,3.27.13,4.91.15,1.35,0,2.71-.12,4.06-.12.77,0,1.54.17,2.31.17.41,0,.82-.35,1.24-.34,1.07,0,2.13.22,3.2.26,1.23,0,2.46,0,3.69,0s2.24.11,3.37.13c1.73,0,3.45,0,5.18.07,1,0,2,.09,3,.07.44,0,.91-.48,1.32-.3,1,.45,1.73-1,2.65-1.11.4,0,.8-.26,1.19-.26,1.07,0,2.13,0,3.2.09.31,0,.62.3.93.29,2-.05,4-.18,6-.23,1.35,0,2.69,0,4,0q3.2.1,6.4.24c1.17.05,2.34.14,3.52.25a5.43,5.43,0,0,1,.82.27,5.74,5.74,0,0,0,1.52.33c1.55,0,3.11-.23,4.66-.25,2.66,0,5.33,0,8,.08,2.37.11,4.74.4,7.11.6,1.85.15,3.7.27,5.54.45.5,0,1.05-.18,1.4.88.09.26.37.31.56.45l.76.53c0,.14,0,.29,0,.43l-.49.44h0l0,0,.3.6c.21,1,.47,2,.61,3a12.38,12.38,0,0,1-.1,2l.76-1.92.16.12c-.12.51-.22,1-.37,1.51s-.4,1.16-.65,1.86l.9.14L391,82.85c.49,1.1.48,1.65-.07,3.29a1,1,0,0,0,.19.67c-.22,1.18.18,2.87-.63,3.91l.38,1.19a1.22,1.22,0,0,0-.12.37,2.65,2.65,0,0,1-1.08,2.35c-.08.06-.07.51-.11.78.13,0,.28.06.38,0,.3-.29,1,.14,1.06.78a17.18,17.18,0,0,1,.31,4.12c-.08.59-.14,1.2-.21,1.9l.53-.25c0,.51.06,1,.1,1.49s.11,1,.14,1.56c0,.82.09,1.64.08,2.45,0,.15-.25.45-.37.42-1.35-.42-2.6.72-3.91.86a13.11,13.11,0,0,1-3.06,0c-1.27-.16-2.54-.64-3.81-.78-1.44-.15-2.89,0-4.33-.12a8.91,8.91,0,0,1-2-.62c-.17-.05-.33-.18-.5-.17a13,13,0,0,1-1.76.25c-2-.07-4-.23-6-.32-1.43-.07-2.86,0-4.29-.12-.8-.05-1.6-.37-2.4-.41s-1.76.17-2.64.15c-.38,0-.76-.32-1.15-.45a2.69,2.69,0,0,0-.81-.17c-1.63,0-3.25-.1-4.88-.1-.66,0-1.31.14-2,.13a21.61,21.61,0,0,1-2.61-.2c-.18,0-.34-.38-.41-.46a9.18,9.18,0,0,1-1.85.4c-1.72,0-3.44-.1-5.17-.12-1.09,0-2.18.07-3.28.06-1.85,0-3.7-.09-5.56-.1-.76,0-1.53.09-2.29.14,0,0,0,0-.06,0-1.06-.61-2.12.24-3.2,0a21.09,21.09,0,0,0-3.25-.24c-.06,0-.12-.09-.18-.13l.27-.2-.05-.15-.2.36a12.55,12.55,0,0,1-5.45-.26A11.2,11.2,0,0,0,312,105c-1.47,0-2.93.07-4.4,0-.81,0-1.61-.22-2.42-.25-1.3-.05-2.6,0-3.91-.06s-2.64-.24-4-.3c-1.74-.08-3.47-.08-5.21-.15-.92,0-1.85-.15-2.77-.28-.14,0-.28-.29-.42-.45,0-.07.09-.13,0,0,0-.17,0-.06,0,0m-115-10.24c0,.13,0,.25,0,0,0,.2,0,.07,0-.06l.22-.56-.15-.12c0,.23,0,.47-.06.7m2.53-7.56.19.46.11-.27-.32-.17-.16-.11.17.08m213.2,11.54.06.27,0-.05-.12-.18-.38-1-.16.36.56.58m1.61,8.15.15-.22a6.61,6.61,0,0,0-.41-1.59c-.11-.18-.5.22-.87.42l1.13,1.39M357.81,78,357,76c-.23,1.28-.18,1.39.85,2m32.78,24.63.24-.1-.22-1.73-.23.1.21,1.72m-.95-2.41.21-.07-.14-1.51-.2.06.13,1.51M176.5,88.08l.22-.24-.3-.84-.2.22.27.86m13.89,5.63c0-.13,0-.27,0-.4l-.51-.06c0,.13,0,.25,0,.38l.51.08M388.72,91.1l-.19.16.22.84.15-.13-.18-.87M174.79,94.66l-.08-.23-.38.46.08.23ZM389,93.21c.12.13.18.24.25.26s.12-.18.11-.23a.64.64,0,0,0-.14-.32s-.11.14-.21.3m-210.15-2,.12-.4-.39-.28-.07.29.34.39M167.6,93.89l-.09.09.2.81.11-.1Zm220.71-1.37c-.07.18-.13.3-.12.36a1.3,1.3,0,0,0,.14.32c0-.08.11-.18.11-.25a2.1,2.1,0,0,0-.13-.43M185.6,95.16c0,.11,0,.22,0,.34l.39-.09v-.23l-.4,0M388.21,78.92l0-.34-.34-.12,0,.29.33.18m-227.56,13L160.53,93a1.53,1.53,0,0,0,.25-.73s0-.11-.13-.33m164,13.46.13-.15-.16-.41s-.09.11-.09.12.08.29.12.43m-123.11-23,.09.23.24-.35-.06-.16-.27.27m6,8.68a1.76,1.76,0,0,0-.09.32s.06.15.08.14.09-.1.13-.16l-.12-.31M165.83,94c-.1-.07-.17-.14-.24-.14s-.06.15-.09.23.12.17.19.21.07-.14.14-.29M389.68,76.78l.09-.12-.19-.54-.1.12.19.54M205.61,94.58a1.73,1.73,0,0,0,.06-.29s-.05-.09-.08-.13a1.52,1.52,0,0,0-.07.26s0,.09.09.16m-2.26-1c-.11-.14-.16-.24-.2-.24s-.08.13-.12.2.1.21.15.24.09-.11.16-.2m-25.4.86-.17.36L178,95l.11-.24-.17-.38M163.8,89.82l0-.21-.28.16,0,.16Zm-4,4.61-.1-.18a1.13,1.13,0,0,0-.08.24s0,.1.08.15l.1-.21m116.37,5.23-.11-.14-.1.5.09.07.12-.44M164.54,96.08l.05-.31s-.08,0-.1,0a.41.41,0,0,0,0,.2s.05.07.09.13m9.62-7.62a.59.59,0,0,0,.05-.18.44.44,0,0,0-.08-.15l-.08.24.11.1m1.12-1.4a.49.49,0,0,0-.07.16.68.68,0,0,0,0,.2.9.9,0,0,0,.09-.21s0-.1-.07-.15m3.06,4.2c-.06,0-.12,0-.13.07a1.76,1.76,0,0,0,0,.29s.09,0,.1-.06a2.06,2.06,0,0,0,0-.3m10.38,3.63.1.13c0-.07.06-.16.1-.24s-.07-.12-.08-.1a1.28,1.28,0,0,0-.11.21m15.32,0a.64.64,0,0,0,0,.17.69.69,0,0,0,.06.17.88.88,0,0,0,.06-.21s0-.09-.08-.13M357.86,83.16a2.2,2.2,0,0,0-.11.32s.06.16.07.15a.31.31,0,0,0,.14-.18,1.09,1.09,0,0,0-.1-.3M387,84.36l-.07.13a.39.39,0,0,0,.09.08s0-.06,0-.06l-.06-.15M159,94l.1.07,0-.1-.1-.07,0,.1m229.33,8.49-.09.07a.69.69,0,0,0,0,.17s.06,0,.09-.06l0-.18M164.44,89.36l0-.08a1.07,1.07,0,0,0-.06.15s0,.05,0,.08l.06-.15m1.75,5.18s.07.09.08.07a.57.57,0,0,0,.07-.16l-.12-.1c0,.06,0,.13,0,.19M366.71,84l0,.25.31.13,0-.18-.3-.21m-10.63,21-.1.08c0,.06,0,.15,0,.18s.06,0,.1-.07l0-.18M182.23,94.57a1.18,1.18,0,0,0-.07.14.19.19,0,0,0,0,.08.33.33,0,0,0,.09-.05l-.05-.17m2,.26V95s.06,0,.06,0,0-.12,0-.19h-.06m2.61-5.58s-.07.08-.08.14,0,.1.06.16l.11-.18-.09-.12m20.27,5.93a1.56,1.56,0,0,0,0,.19s0,0,0,0a1.5,1.5,0,0,0,.06-.15l-.1-.07m4.32,1.06s-.08.07-.08.11a.56.56,0,0,0,.05.16s.07-.07.08-.11a.57.57,0,0,0-.05-.16m55.74,4.37-.08.11s0,.08,0,.08a.33.33,0,0,0,.1,0l0-.16M390.64,83.84l0,.05c0,.06,0,.12,0,.18l0-.06c0-.06,0-.12,0-.17m.85,23h-.07q0,.18,0,.36h.06c0-.12,0-.24,0-.36m-.67-.06-.07-.15a.64.64,0,0,0-.07.15,1.12,1.12,0,0,0,.1.2l0-.2m-.74-3.79a.37.37,0,0,0-.07.14.47.47,0,0,0,.05.15.35.35,0,0,0,.07-.14s0-.1-.06-.16m-.26,1.19.09.09a.16.16,0,0,0,0-.08,1.57,1.57,0,0,0-.05-.16l-.07.15m-.71-10,0,.05c0,.06,0,.11.06.16l0-.05-.06-.17M389,105.61l.09.09a.17.17,0,0,0,0-.07,1.15,1.15,0,0,0-.05-.15l-.06.14m-231.78-6.8,0-.18s0,0-.05,0,0,.12,0,.17l.05,0m2.35-2.44s0-.07,0-.08,0,0,0,0l.05.13,0-.08m4.15-3.67c0-.05,0-.1,0-.15s0,0,0,0a.43.43,0,0,0-.08.09l.08.1m3.32-1,0-.07-.06.13,0,.07.07-.12m-.22-3.62,0,0c0,.07,0,.13,0,.19l0,0c0-.06,0-.13,0-.19m3.91.8a.67.67,0,0,0,0-.19s-.06,0-.09-.06a.67.67,0,0,0,0,.19s.06,0,.1.07M173.27,86l0,0a.33.33,0,0,0,0,.09s0,0,0,0,0-.05,0-.08m12.28,6.12s0,0,0,0a.22.22,0,0,0,0,.08s0,0,0,0a.29.29,0,0,0,0-.08M191,96l-.07.13a.6.6,0,0,0,.1.07s0,0,0-.06L191,96m4.83-12.59,0-.1s0,0-.05,0,0,.06,0,.09Zm1,11.1s0-.08,0-.09,0,0-.05,0,0,.08,0,.09,0,0,.05,0m4-2.62s0,0,0,0,0,0,0-.08,0,0,0,0,0,.05,0,.08m144.44,12.34v.11h.07a.36.36,0,0,0,0-.1s0,0,0,0m-142.65-21a.88.88,0,0,0,.06-.13s0-.07,0-.07l-.09,0,.06.16m1.91,11.55s0,0,0,.05a.3.3,0,0,0,0,.09l.07-.09,0-.05m.64-6.85-.05,0a.34.34,0,0,0,0,.1s0,0,.05,0l0-.1M356.43,105.1a.25.25,0,0,0,0,.08s0,0,0,0a.27.27,0,0,0,0-.08s0,0,0,0m15.95-2.37,0-.08a1.12,1.12,0,0,0-.07.13.47.47,0,0,0,0,.08l.07-.13M212.92,96.29l-.06-.14a1.35,1.35,0,0,0-.05.15.16.16,0,0,0,0,.07.65.65,0,0,0,.08-.08m176.36,5.9c0,.07,0,.13,0,.2h.08a.2.2,0,0,0,0-.1.49.49,0,0,0-.08-.09m.51,5.07.08,0,0-.08-.05.05m.66-2h0l0-.13a.17.17,0,0,0,0,.06.25.25,0,0,0,0,.08m-1.83-32.33a.25.25,0,0,0,0,.08s0,0,0,0a.26.26,0,0,0,0-.08s0,0,0,0m.5.77-.1,0a.5.5,0,0,0,0,.09l.09,0v-.1m1.85,27-.05,0,0,.14s0,0,0-.07a.32.32,0,0,0,0-.09m-.39-12.38,0,.07s0-.07,0-.09a.31.31,0,0,0,0-.09s0,.06,0,.1M157.51,98h0l0,.07Zm1.92-4.88,0,0,0,.06Zm1.94,4.39,0,.07h0Zm1.44-6.13s0,0-.05,0,0,.06,0,.09,0,0,.05,0a.38.38,0,0,0,0-.09m2.09.65v.09L165,92s0-.06,0-.06,0,0,0,0m3.19,3.41a.29.29,0,0,0,0,.09s0,0,0,0,0-.08,0-.09,0,0,0,0M168,92.5c0,.06,0,.12,0,.18l0,0c0-.06,0-.12,0-.18l0,0m.57,1,0-.08h0Zm.42-4.22,0,.08s0,0,0,0a.23.23,0,0,0,0-.08l0,0m3.11-3.45a.21.21,0,0,0,0,.07.18.18,0,0,0,0,.06.25.25,0,0,0,0-.08s0,0,0-.06m2.1,3.68v-.09l0,0Zm1.52,4h0s0,.05,0,.08,0,0,0,0,0,0,0-.07m.91-3.06,0,.08,0-.13s0,0,0,0a.3.3,0,0,0,0,.08m.26-2.33,0,.09.08,0a.51.51,0,0,0,0-.1s0,0-.05,0m.19-.7v.15l0,0,0-.11m2.8,3.11s0,0,0,.06a.26.26,0,0,0,0,.1s0,0,0-.06a.31.31,0,0,0,0-.09m6.58,4.86,0,.16s0,0,0,0a.75.75,0,0,0,0-.14m6.18-10.22a.48.48,0,0,0,0-.09h0a.38.38,0,0,0,0,.09s0,0,0,0m.72,5.72,0,.06,0,0Zm6.85,1.32h0l0-.07Zm1.57-2.76,0,.08s0,0,0,0,0-.05,0-.08l0,0M204.86,93l0,.13a.27.27,0,0,0,0-.09s0,0-.06,0m1.66-10.47s0,0,0,0,0,0,0,.08,0,0,0,0a.35.35,0,0,0,0-.08m4.06-.63s0,0,0,.05a.4.4,0,0,0,0,.09l.06-.09,0-.05m127.24,21.53,0,.05,0-.16s0,0-.05,0a.48.48,0,0,0,0,.1m2.35-15.86,0-.05v.07Zm16.71,17.56a.44.44,0,0,0,0,.09h0a.48.48,0,0,0,0-.09h0m27.72,2.95,0-.09s0,0,0,0a.25.25,0,0,0,0,.08l0,0M388,91.63l0-.07,0,.06Zm1.67,10.14c0,.06,0,.11,0,.15a.21.21,0,0,0,0-.07s0,0,0-.09m.2-22,0-.13a.3.3,0,0,0,0,.09s0,0,.06,0m-.16-1.59,0,.06,0-.08Z" transform="translate(-156.44 -69.17)" style="fill:#f7d011"/><path d="M390.94,76.33l-.38-.58.12-.27.37.6-.11.25" transform="translate(-156.44 -69.17)" style="fill:#f7d011"/><path d="M157.68,91.2l.47-.11v.16l-.47.11c0-.05,0-.1,0-.16" transform="translate(-156.44 -69.17)" style="fill:#f7d011"/><path d="M156.73,97c0,.19,0,.38,0,.57l-.15-.08.17-.47,0,0" transform="translate(-156.44 -69.17)" style="fill:#f7d011"/><path d="M201.93,95.53l0,0a.24.24,0,0,1,0-.08s0,0,0,0v.08" transform="translate(-156.44 -69.17)" style="fill:#f7d011"/><path d="M390.8,74.92s0-.09,0-.1,0,0,.05,0a.3.3,0,0,1,0,.1Z" transform="translate(-156.44 -69.17)" style="fill:#f7d011"/><path d="M391.21,76.9s0,0,.05,0a.33.33,0,0,1,0,.1s0,0-.05,0a.36.36,0,0,1,0-.1" transform="translate(-156.44 -69.17)" style="fill:#f7d011"/><path d="M389.65,72.12s0-.05,0-.05,0,0,0,.05h-.08" transform="translate(-156.44 -69.17)" style="fill:#f7d011"/></svg>